<?xml version="1.0" encoding="utf-8"?>
<!-- Generator: Adobe Illustrator 26.5.0, SVG Export Plug-In . SVG Version: 6.00 Build 0)  -->
<svg version="1.1" xmlns="http://www.w3.org/2000/svg" xmlns:xlink="http://www.w3.org/1999/xlink" x="0px" y="0px"
	 viewBox="0 0 1920 1080" style="enable-background:new 0 0 1920 1080;" xml:space="preserve">
<style type="text/css">
	.st0{display:none;}
	.st1{display:inline;}
	.st2{opacity:0.1;enable-background:new    ;}
	.st3{stroke:#000000;stroke-width:2;stroke-miterlimit:10;}
</style>
<g id="Layer_1" class="st0">
	<path class="st1" d="M1949.6-76.2H-29.6c-29.2,0-52.8,24.1-52.8,53.9v1123.9c0,29.8,23.6,53.9,52.8,53.9h1979.2
		c29.2,0,52.8-24.1,52.8-53.9V-22.3C2002.4-52.1,1978.7-76.2,1949.6-76.2z M1857.5,950.4c-6.6,34.7-34.5,61.1-68.9,65.2
		c-92.6,11-188.6,20.4-287.8,27.7c-190.9,14.1-371.6,19-540.7,17.4v0.9c-169.1,1.6-349.9-3.3-540.9-17.4
		c-99.2-7.3-195.2-16.7-287.8-27.7c-34.5-4.1-62.3-30.5-68.9-65.2C38.5,824.4,20.1,670.9,21,496.7c0.7-131.9,12.3-250.9,28.4-354
		c5.5-35.1,32.8-62.4,67.3-67.5c93.1-13.7,190.4-25.5,291.8-34.7c146.3-13.3,285.7-20,417.4-21.7v0.5h338.2
		c110.7,2.9,226.7,9.3,347.3,20.3c101.4,9.2,198.8,21,291.8,34.7c34.5,5.1,61.8,32.4,67.3,67.5c16.1,103.2,27.7,222.2,28.4,354
		C1899.9,670.1,1881.5,823.6,1857.5,950.4L1857.5,950.4z"/>
</g>
<g id="Layer_2">
	<g id="Layer_1_00000078038323163425065020000017739097336900761019_">
		<g>
			<g class="st2">
				<path class="st3" d="M-27.3,1.4c624.1-18.7,1350.9-18.7,1975,0c0,0.7,0,1.3,0,2c-617.1-22.4-1357.9-22.4-1975,0
					C-27.3,2.7-27.3,2-27.3,1.4z"/>
				<path class="st3" d="M1948.7,4.4C1334.6-20,585.8-20-28.3,4.4c0-1.3,0-2.7,0-4c628.2-16.8,1348.7-16.8,1976.9,0
					C1948.7,1.7,1948.7,3.1,1948.7,4.4z"/>
			</g>
			<g class="st2">
				<path class="st3" d="M-27.2-6.2c651.1-4,1323.7-4,1974.8,0c0,0.7,0,1.3,0,2c-644-7.9-1330.8-7.9-1974.8,0
					C-27.2-4.9-27.2-5.6-27.2-6.2z"/>
				<path class="st3" d="M1948.6-3.2c-641.1-9.8-1335.8-9.8-1976.9,0c0-1.3,0-2.7,0-4c655.3-2,1321.5-2,1976.8,0
					C1948.6-5.9,1948.6-4.6,1948.6-3.2z"/>
			</g>
			<g class="st2">
				<path class="st3" d="M-27.8,54.6c445.6-104.9,1530.4-104.9,1976.1,0c0,0.7,0,1.3,0,2C1508.9-51,411.5-51-27.9,56.5
					C-27.8,55.9-27.8,55.2-27.8,54.6z"/>
				<path class="st3" d="M1948.9,57.7C1513-51.3,407.4-51.3-28.5,57.7c0-1.3,0-2.7,0-4C420.1-50,1500.3-50,1948.9,53.7
					C1948.9,55.1,1948.9,56.4,1948.9,57.7z"/>
			</g>
			<g class="st2">
				<path class="st3" d="M-28,69.8c398.1-124.3,1578.3-124.3,1976.4,0c0,0.7,0,1.3,0,2C1556.4-54.9,364-54.9-28,71.8
					C-28,71.1-28,70.5-28,69.8z"/>
				<path class="st3" d="M1949,73C1560.5-55.1,359.9-55.1-28.6,73c0-1.3,0-2.7,0-4C372.2-54.4,1548.2-54.4,1949,69
					C1949,70.3,1949,71.6,1949,73z"/>
			</g>
			<g class="st2">
				<path class="st3" d="M-27.5,24.2C517.8-35,1402.6-35,1947.9,24.2c0,0.7,0,1.3,0,2c-538.7-62.5-1436.8-62.5-1975.5,0
					C-27.5,25.5-27.5,24.8-27.5,24.2z"/>
				<path class="st3" d="M1948.8,27.2C1413.3-37,507.1-37-28.4,27.2c0-1.3,0-2.7,0-4c548.9-57.7,1428.2-57.7,1977.1,0
					C1948.8,24.6,1948.8,25.9,1948.8,27.2z"/>
			</g>
			<g class="st2">
				<path class="st3" d="M-29.2,222.3c5.9-210.5,1972.8-210.5,1978.8,0c0,0.7,0,1.3,0,2c-1.9-210.5-1976.9-210.5-1978.8,0
					C-29.2,223.6-29.2,223-29.2,222.3z"/>
				<path class="st3" d="M1949.6,225.6c2.3-210.9-1981.1-210.9-1978.8,0c0-1.3,0-2.7,0-4c6-210.9,1972.8-210.9,1978.8,0
					C1949.6,223,1949.6,224.3,1949.6,225.6z"/>
			</g>
			<g class="st2">
				<path class="st3" d="M-29.7,314c-156.4-187.1,2136.2-187.1,1979.8,0c0,0.7,0,1.3,0,2C2109.4,129.9-189,129.9-29.7,316
					C-29.7,315.3-29.7,314.7-29.7,314z"/>
				<path class="st3" d="M1949.8,317.3c163.5-186-2142.8-186-1979.3,0c0-1.3,0-2.7,0-4c-157.6-188,2136.9-188,1979.3,0
					C1949.8,314.6,1949.8,316,1949.8,317.3z"/>
			</g>
			<g class="st2">
				<path class="st3" d="M-28.8,161.2c144.6-197.6,1833.3-197.6,1977.9,0c0,0.7,0,1.3,0,2C1809.5-35.2,110.9-35.2-28.8,163.2
					C-28.8,162.5-28.8,161.9-28.8,161.2z"/>
				<path class="st3" d="M1949.4,164.5C1813.6-34.8,106.8-34.8-29,164.5c0-1.3,0-2.7,0-4c145.6-197.6,1832.7-197.6,1978.4,0
					C1949.4,161.9,1949.4,163.2,1949.4,164.5z"/>
			</g>
			<g class="st2">
				<path class="st3" d="M-29.9,375.2c-234.3-149.6,2214.5-149.6,1980.3,0c0,0.7,0,1.3,0,2C2186.7,229-266.3,229-29.9,377.2
					C-29.9,376.6-29.9,375.9-29.9,375.2z"/>
				<path class="st3" d="M1950,378.5c240.5-147.8-2220-147.8-1979.5,0c0-1.3,0-2.7,0-4c-236.2-150.7,2215.7-150.7,1979.5,0
					C1950,375.8,1950,377.1,1950,378.5z"/>
			</g>
			<g class="st2">
				<path class="st3" d="M-27.7,39.4c494.7-83.2,1481-83.2,1975.8,0c0,0.7,0,1.3,0,2c-488.3-86.1-1487.5-86.1-1975.8,0
					C-27.7,40.7-27.7,40-27.7,39.4z"/>
				<path class="st3" d="M1948.9,42.5c-485-87.8-1492.4-87.8-1977.3,0c0-1.3,0-2.7,0-4c498-81.8,1479.2-81.8,1977.3,0
					C1948.8,39.8,1948.9,41.2,1948.9,42.5z"/>
			</g>
			<g class="st2">
				<path class="st3" d="M-27.4,9c597.4-32.8,1377.7-32.8,1975.1,0c0,0.7,0,1.3,0,2c-590.6-36.4-1384.6-36.4-1975.2,0
					C-27.4,10.3-27.4,9.6-27.4,9z"/>
				<path class="st3" d="M1948.7,12c-587.5-38.3-1389.5-38.3-1977,0c0-1.3,0-2.7,0-4C573.1-23,1347.3-23,1948.7,8
					C1948.7,9.3,1948.7,10.7,1948.7,12z"/>
			</g>
			<g class="st2">
				<path class="st3" d="M-28.3,100.2c307.5-156.7,1669.4-156.7,1976.9,0c0,0.7,0,1.3,0,2c-301.8-158.5-1675.1-158.5-1977,0
					C-28.3,101.6-28.3,100.9-28.3,100.2z"/>
				<path class="st3" d="M1949.1,103.5C1651-56.3,269.4-56.3-28.7,103.5c0-1.3,0-2.7,0-4c309.6-156.1,1668.2-156.1,1977.9,0
					C1949.1,100.8,1949.1,102.1,1949.1,103.5z"/>
			</g>
			<g class="st2">
				<path class="st3" d="M-29.8,344.6c-198.4-170.2,2178.4-170.2,1980,0c0,0.7,0,1.3,0,2c200.9-169-2180.9-169-1980,0
					C-29.8,346-29.8,345.3-29.8,344.6z"/>
				<path class="st3" d="M1949.9,347.9c205-168.7-2184.5-168.7-1979.4,0c0-1.3,0-2.7,0-4c-199.9-171.2,2179.4-171.2,1979.4,0
					C1949.9,345.2,1949.9,346.6,1949.9,347.9z"/>
			</g>
			<g class="st2">
				<path class="st3" d="M-29.5,283.4c-108.4-199.8,2087.8-199.8,1979.5,0c0,0.7,0,1.3,0,2c111.7-199.2-2091.2-199.2-1979.5,0
					C-29.5,284.8-29.5,284.1-29.5,283.4z"/>
				<path class="st3" d="M1949.8,286.7c115.9-199.2-2095-199.2-1979.2,0c0-1.3,0-2.7,0-4c-109.2-200.6,2088.3-200.6,1979.1,0
					C1949.8,284.1,1949.8,285.4,1949.8,286.7z"/>
			</g>
			<g class="st2">
				<path class="st3" d="M-30,405.9c-264.1-126,2244.5-126,1980.4,0c0,0.7,0,1.3,0,2c265.8-124.4-2246.2-124.4-1980.4,0
					C-30,407.2-30,406.5-30,405.9z"/>
				<path class="st3" d="M1950,409.1c269.8-123.8-2249.4-123.8-1979.6,0c0-1.3,0-2.7,0-4c-266.3-127.1,2245.9-127.1,1979.6,0
					C1950,406.4,1950,407.7,1950,409.1z"/>
			</g>
			<g class="st2">
				<path class="st3" d="M-27.6,31.8c519.8-71.5,1455.8-71.5,1975.6,0c0,0.7,0,1.3,0,2c-513.3-74.6-1462.3-74.6-1975.6,0
					C-27.6,33.1-27.6,32.4-27.6,31.8z"/>
				<path class="st3" d="M1948.8,34.9c-510-76.3-1467.2-76.3-1977.3,0c0-1.3,0-2.7,0-4c523.3-70,1453.9-70,1977.2,0
					C1948.8,32.2,1948.8,33.5,1948.8,34.9z"/>
			</g>
			<g class="st2">
				<path class="st3" d="M-27.4,16.6c571.2-46.3,1404.1-46.3,1975.3,0c0,0.7,0,1.3,0,2C1383.4-31.2,537-31.2-27.5,18.5
					C-27.5,17.9-27.5,17.2-27.4,16.6z"/>
				<path class="st3" d="M1948.7,19.6c-561.3-51.5-1415.8-51.5-1977.1,0c0-1.3,0-2.7,0-4c575-44.7,1402.1-44.7,1977.1,0
					C1948.7,17,1948.7,18.3,1948.7,19.6z"/>
			</g>
			<g class="st2">
				<path class="st3" d="M-28.5,130.7c223-180.9,1754.5-180.9,1977.4,0c0,0.7,0,1.3,0,2C1731.2-49.5,189.2-49.5-28.5,132.7
					C-28.5,132-28.5,131.4-28.5,130.7z"/>
				<path class="st3" d="M1949.3,134C1735.4-49.3,185-49.3-28.9,134c0-1.3,0-2.7,0-4c224.6-180.6,1753.5-180.6,1978.1,0
					C1949.3,131.3,1949.3,132.7,1949.3,134z"/>
			</g>
			<g class="st2">
				<path class="st3" d="M-29,191.8c72.2-207.3,1906.1-207.3,1978.4,0c0,0.7,0,1.3,0,2C1881.6-13.9,38.8-13.9-29,193.7
					C-29,193.1-29,192.4-29,191.8z"/>
				<path class="st3" d="M1949.5,195.1C1885.8-13.2,34.6-13.2-29.1,195.1c0-1.3,0-2.7,0-4c72.8-207.5,1905.8-207.5,1978.6,0
					C1949.5,192.4,1949.5,193.7,1949.5,195.1z"/>
			</g>
			<g class="st2">
				<path class="st3" d="M-27.9,62.2c421.6-114.9,1554.6-114.9,1976.2,0c0,0.7,0,1.3,0,2C1532.8-53.2,387.6-53.2-27.9,64.2
					C-27.9,63.5-27.9,62.8-27.9,62.2z"/>
				<path class="st3" d="M1949,65.4c-412-118.9-1565.5-118.9-1977.5,0c0-1.3,0-2.7,0-4C396-52.5,1524.4-52.5,1949,61.4
					C1949,62.7,1949,64,1949,65.4z"/>
			</g>
			<g class="st2">
				<path class="st3" d="M-29.8,329.3c-178.1-179.1,2158.1-179.1,1979.9,0c0,0.7,0,1.3,0,2c180.8-178-2160.8-178-1979.9,0
					C-29.8,330.6-29.8,330-29.8,329.3z"/>
				<path class="st3" d="M1949.9,332.6c185-177.8-2164.4-177.8-1979.4,0c0-1.3,0-2.7,0-4c-179.5-180.1,2158.9-180.1,1979.3,0
					C1949.9,329.9,1949.9,331.3,1949.9,332.6z"/>
			</g>
			<g class="st2">
				<path class="st3" d="M-30,390.6c-249.9-138.2,2230.3-138.2,1980.4,0c0,0.7,0,1.3,0,2c251.8-136.7-2232.2-136.7-1980.4,0
					C-30,391.9-30,391.2-30,390.6z"/>
				<path class="st3" d="M1950,393.8c255.9-136.1-2235.5-136.1-1979.6,0c0-1.3,0-2.7,0-4c-252-139.3,2231.6-139.3,1979.6,0
					C1950,391.1,1950,392.4,1950,393.8z"/>
			</g>
			<g class="st2">
				<path class="st3" d="M-29.6,298.7c-133.1-194,2112.8-194,1979.6,0c0,0.7,0,1.3,0,2c136.2-193.2-2115.9-193.2-1979.6,0
					C-29.6,300-29.6,299.4-29.6,298.7z"/>
				<path class="st3" d="M1949.8,302c140.4-193.2-2119.7-193.2-1979.2,0c0-1.3,0-2.7,0-4c-134.1-194.9,2113.3-194.9,1979.2,0
					C1949.8,299.3,1949.8,300.7,1949.8,302z"/>
			</g>
			<g class="st2">
				<path class="st3" d="M-30.1,436.5c-287.8-100,2268.4-100,1980.6,0c0,0.7,0,1.3,0,2c289.1-98.2-2269.7-98.2-1980.6,0
					C-30.1,437.8-30.1,437.2-30.1,436.5z"/>
				<path class="st3" d="M1950,439.7c293.1-97.5-2272.8-97.5-1979.7,0c0-1.3,0-2.7,0-4c-290.4-101.1,2270-101.1,1979.7,0
					C1950,437,1950,438.3,1950,439.7z"/>
			</g>
			<g class="st2">
				<path class="st3" d="M-28.1,85c352-141.6,1624.6-141.6,1976.6,0c0,0.7,0,1.3,0,2C1602.4-56.6,318-56.6-28.1,87
					C-28.1,86.3-28.1,85.7-28.1,85z"/>
				<path class="st3" d="M1949.1,88.2c-342.5-145-1635.2-145-1977.8,0c0-1.3,0-2.7,0-4c354.4-140.8,1623.3-140.8,1977.7,0
					C1949.1,85.6,1949.1,86.9,1949.1,88.2z"/>
			</g>
			<g class="st2">
				<path class="st3" d="M-27.8,47c470-94.3,1505.9-94.3,1975.9,0c0,0.7,0,1.3,0,2c-463.6-97.1-1512.3-97.1-1976,0
					C-27.8,48.3-27.8,47.6-27.8,47z"/>
				<path class="st3" d="M1948.9,50.1c-460.3-98.7-1517.1-98.7-1977.4,0c0-1.3,0-2.7,0-4C444.7-47,1475.7-47,1948.9,46.1
					C1948.9,47.4,1948.9,48.8,1948.9,50.1z"/>
			</g>
			<g class="st2">
				<path class="st3" d="M-29.4,252.9C-83.6,45,2004,45,1949.8,252.9c0,0.7,0,1.3,0,2c57.9-207.5-2037.1-207.5-1979.2,0
					C-29.4,254.2-29.4,253.5-29.4,252.9z"/>
				<path class="st3" d="M1949.7,256.2c62.1-207.7-2041.1-207.7-1979,0c0-1.3,0-2.7,0-4c-54.6-208.4,2033.6-208.4,1979,0
					C1949.7,253.5,1949.7,254.8,1949.7,256.2z"/>
			</g>
			<g class="st2">
				<path class="st3" d="M-30.1,421.2c-276.7-113.3,2257.2-113.3,1980.5,0c0,0.7,0,1.3,0,2c278.2-111.6-2258.7-111.6-1980.5,0
					C-30.1,422.5-30.1,421.8-30.1,421.2z"/>
				<path class="st3" d="M1950,424.4c282.2-110.9-2261.9-110.9-1979.7,0c0-1.3,0-2.7,0-4C-308.7,306,2229.1,306,1950,420.3
					C1950,421.7,1950,423,1950,424.4z"/>
			</g>
			<g class="st2">
				<path class="st3" d="M-29.9,359.9c-217.1-160.3,2197.2-160.3,1980.1,0c0,0.7,0,1.3,0,2c219.4-159-2199.5-159-1980.2,0
					C-29.9,361.3-29.9,360.6-29.9,359.9z"/>
				<path class="st3" d="M1949.9,363.2c223.5-158.6-2203-158.6-1979.5,0c0-1.3,0-2.7,0-4c-218.8-161.3,2198.3-161.3,1979.5,0
					C1949.9,360.5,1949.9,361.8,1949.9,363.2z"/>
			</g>
			<g class="st2">
				<path class="st3" d="M-30.1,451.8c-297.4-86.1,2278-86.1,1980.6,0c0,0.7,0,1.3,0,2c298.5-84.3-2279.2-84.3-1980.6,0
					C-30.1,453.1-30.1,452.5-30.1,451.8z"/>
				<path class="st3" d="M1950.1,455c302.4-83.6-2282.1-83.6-1979.7,0c0-1.3,0-2.7,0-4c-300.1-87.3,2279.8-87.3,1979.7,0
					C1950.1,452.3,1950.1,453.6,1950.1,455z"/>
			</g>
			<g class="st2">
				<path class="st3" d="M-28.6,146C154.4-44.2,1766-44.2,1949,146c0,0.7,0,1.3,0,2C1771.1-43.3,149.3-43.3-28.7,148
					C-28.7,147.3-28.6,146.6-28.6,146z"/>
				<path class="st3" d="M1949.3,149.3c-174-192.2-1804.2-192.2-1978.3,0c0-1.3,0-2.7,0-4c184.3-190,1793.9-190,1978.2,0
					C1949.3,146.6,1949.3,147.9,1949.3,149.3z"/>
			</g>
			<g class="st2">
				<path class="st3" d="M-29.5,268.1c-82.1-204.5,2061.4-204.5,1979.3,0c0,0.7,0,1.3,0,2C2035.4,66.2-115,66.2-29.5,270.1
					C-29.5,269.5-29.5,268.8-29.5,268.1z"/>
				<path class="st3" d="M1949.7,271.5c89.7-204.1-2068.8-204.1-1979.1,0c0-1.3,0-2.7,0-4c-82.6-205.1,2061.7-205.1,1979.1,0
					C1949.7,268.8,1949.7,270.1,1949.7,271.5z"/>
			</g>
			<g class="st2">
				<path class="st3" d="M-29.1,207C9.2-2.6,1911.2-2.6,1949.5,207c0,0.7,0,1.3,0,2C1915.4-0.8,4.9-0.8-29.1,209
					C-29.1,208.3-29.1,207.7-29.1,207z"/>
				<path class="st3" d="M1949.6,210.3C1919.6,0,0.8,0-29.2,210.3c0-1.3,0-2.7,0-4c38.6-210,1940-210,1978.7,0
					C1949.5,207.7,1949.5,209,1949.6,210.3z"/>
			</g>
			<g class="st2">
				<path class="st3" d="M-29.3,237.6c-24.9-209.9,2003.9-209.9,1979,0c0,0.7,0,1.3,0,2c28.8-209.7-2007.8-209.7-1979,0
					C-29.3,238.9-29.3,238.2-29.3,237.6z"/>
				<path class="st3" d="M1949.6,240.9c32.9-210-2011.8-210-1978.9,0c0-1.3,0-2.7,0-4c-25-210.4,2003.9-210.4,1978.9,0
					C1949.6,238.2,1949.6,239.6,1949.6,240.9z"/>
			</g>
			<g class="st2">
				<path class="st3" d="M-28.4,115.5c264.5-169.8,1712.7-169.8,1977.2,0c0,0.7,0,1.3,0,2c-259-171.4-1718.2-171.4-1977.2,0
					C-28.4,116.8-28.4,116.1-28.4,115.5z"/>
				<path class="st3" d="M1949.2,118.7C1694-53.8,226.4-53.8-28.8,118.7c0-1.3,0-2.7,0-4c266.3-169.3,1711.6-169.3,1978,0
					C1949.2,116.1,1949.2,117.4,1949.2,118.7z"/>
			</g>
			<g class="st2">
				<path class="st3" d="M-28.9,176.5c107.6-203.3,1870.5-203.3,1978.1,0c0,0.7,0,1.3,0,2c-103-203.9-1875.2-203.9-1978.2,0
					C-28.9,177.8-28.9,177.1-28.9,176.5z"/>
				<path class="st3" d="M1949.4,179.8c-99-204.6-1879.5-204.6-1978.5,0c0-1.3,0-2.7,0-4c108.4-203.4,1870-203.4,1978.5,0
					C1949.4,177.1,1949.4,178.5,1949.4,179.8z"/>
			</g>
			<g class="st2">
				<path class="st3" d="M-28.2,92.6C301.4-56.7,1619-56.7,1948.6,92.6c0,0.7,0,1.3,0,2c-323.8-151.3-1653-151.3-1976.8,0
					C-28.2,93.9-28.2,93.3-28.2,92.6z"/>
				<path class="st3" d="M1949.1,95.8C1628.9-56.8,291.5-56.8-28.7,95.8c0-1.3,0-2.7,0-4c331.9-148.7,1645.9-148.7,1977.8,0
					C1949.1,93.2,1949.1,94.5,1949.1,95.8z"/>
			</g>
			<g class="st2">
				<path class="st3" d="M-28.1,77.4c374.8-133.2,1601.7-133.2,1976.5,0c0,0.7,0,1.3,0,2C1579.6-56,340.8-56-28.1,79.4
					C-28.1,78.7-28.1,78.1-28.1,77.4z"/>
				<path class="st3" d="M1949,80.6C1583.7-56.2,336.7-56.2-28.6,80.6c0-1.3,0-2.7,0-4C348.8-55.7,1571.6-55.7,1949,76.6
					C1949,77.9,1949,79.3,1949,80.6z"/>
			</g>
			<g class="st2">
				<path class="st3" d="M-29,199.4C26-9.3,1894.4-9.3,1949.4,199.4c0,0.7,0,1.3,0,2c-50.7-209-1927.8-209-1978.5,0
					C-29,200.7-29,200-29,199.4z"/>
				<path class="st3" d="M1949.5,202.7C1902.9-6.8,17.5-6.8-29.1,202.7c0-1.3,0-2.7,0-4c55.5-208.9,1923.1-208.9,1978.6,0
					C1949.5,200,1949.5,201.4,1949.5,202.7z"/>
			</g>
			<g class="st2">
				<path class="st3" d="M-29.2,229.9c-9.7-210.4,1988.5-210.4,1978.9,0c0,0.7,0,1.3,0,2c13.6-210.3-1992.5-210.3-1978.9,0
					C-29.2,231.2-29.2,230.6-29.2,229.9z"/>
				<path class="st3" d="M1949.6,233.2C1967.4,22.6-47,22.6-29.2,233.2c0-1.3,0-2.7,0-4c-9.7-210.8,1988.5-210.8,1978.8,0
					C1949.6,230.6,1949.6,231.9,1949.6,233.2z"/>
			</g>
			<g class="st2">
				<path class="st3" d="M-28.6,138.4c202.8-185.8,1774.8-185.8,1977.6,0c0,0.7,0,1.3,0,2c-197.7-187-1779.9-187-1977.6,0
					C-28.6,139.7-28.6,139-28.6,138.4z"/>
				<path class="st3" d="M1949.3,141.6c-193.8-188-1784.4-188-1978.2,0c0-1.3,0-2.7,0-4c204.3-185.6,1773.9-185.6,1978.2,0
					C1949.3,139,1949.3,140.3,1949.3,141.6z"/>
			</g>
			<g class="st2">
				<path class="st3" d="M-30,382.9c-242.3-144,2222.6-144,1980.3,0c0,0.7,0,1.3,0,2c244.3-142.5-2224.6-142.5-1980.3,0
					C-30,384.2-30,383.6-30,382.9z"/>
				<path class="st3" d="M1950,386.1c248.4-142-2227.9-142-1979.6,0c0-1.3,0-2.7,0-4C-273.9,237,2194.3,237,1950,382.1
					C1950,383.4,1950,384.8,1950,386.1z"/>
			</g>
			<g class="st2">
				<path class="st3" d="M-30.1,467.1c-305.5-71.9,2286.2-71.9,1980.7,0c0,0.7,0,1.3,0,2c306.4-70.1-2287.1-70.1-1980.7,0
					C-30.1,468.5-30.1,467.8-30.1,467.1z"/>
				<path class="st3" d="M1950.1,470.3c310.2-69.3-2289.9-69.3-1979.7,0c0-1.3,0-2.7,0-4c-308.3-73,2288-73,1979.7,0
					C1950.1,467.6,1950.1,468.9,1950.1,470.3z"/>
			</g>
			<g class="st2">
				<path class="st3" d="M-29.7,321.7c-167.5-183.2,2147.3-183.2,1979.8,0c0,0.7,0,1.3,0,2c170.3-182.2-2150.1-182.2-1979.9,0
					C-29.7,323-29.7,322.3-29.7,321.7z"/>
				<path class="st3" d="M1949.9,325c174.4-182-2153.8-182-1979.3,0c0-1.3,0-2.7,0-4c-168.8-184.2,2148.1-184.2,1979.3,0
					C1949.9,322.3,1949.9,323.6,1949.9,325z"/>
			</g>
			<g class="st2">
				<path class="st3" d="M-30.2,497.8c-317.1-42.6,2297.8-42.6,1980.8,0c0,0.7,0,1.3,0,2c317.6-40.6-2298.4-40.6-1980.8,0
					C-30.2,499.1-30.2,498.4-30.2,497.8z"/>
				<path class="st3" d="M1950.1,500.8c321.2-39.7-2301-39.7-1979.8,0c0-1.3,0-2.7,0-4c-320.1-43.6,2299.9-43.6,1979.8,0
					C1950.1,498.2,1950.1,499.5,1950.1,500.8z"/>
			</g>
			<g class="st2">
				<path class="st3" d="M-28.8,168.9c125.9-200.7,1852.1-200.7,1978,0c0,0.7,0,1.3,0,2C1828.1-30.6,92.3-30.6-28.8,170.8
					C-28.8,170.2-28.8,169.5-28.8,168.9z"/>
				<path class="st3" d="M1949.4,172.2C1832.3-30,88.1-30-29,172.2c0-1.3,0-2.7,0-4c126.9-200.7,1851.6-200.7,1978.4,0
					C1949.4,169.5,1949.4,170.8,1949.4,172.2z"/>
			</g>
			<g class="st2">
				<path class="st3" d="M-28.3,107.9c285.8-163.5,1691.3-163.5,1977,0c0,0.7,0,1.3,0,2C1668.5-55.3,251.9-55.3-28.3,109.8
					C-28.3,109.2-28.3,108.5-28.3,107.9z"/>
				<path class="st3" d="M1949.2,111.1c-276.5-166.4-1701.4-166.4-1978,0c0-1.3,0-2.7,0-4c287.8-163,1690.1-163,1977.9,0
					C1949.2,108.4,1949.2,109.8,1949.2,111.1z"/>
			</g>
			<g class="st2">
				<path class="st3" d="M-29.4,260.5c-68.3-206.3,2047.6-206.3,1979.2,0c0,0.7,0,1.3,0,2c71.9-205.9-2051.2-205.9-1979.3,0
					C-29.4,261.8-29.4,261.2-29.4,260.5z"/>
				<path class="st3" d="M1949.7,263.8c76.1-206-2055.1-206-1979,0c0-1.3,0-2.7,0-4c-68.8-207,2047.8-207,1979,0
					C1949.7,261.1,1949.7,262.5,1949.7,263.8z"/>
			</g>
			<g class="st2">
				<path class="st3" d="M-30.2,482.5c-312-57.4,2292.8-57.4,1980.7,0c0,0.7,0,1.3,0,2c312.8-55.5-2293.5-55.5-1980.7,0
					C-30.2,483.8-30.2,483.1-30.2,482.5z"/>
				<path class="st3" d="M1950.1,485.6c316.5-54.6-2296.2-54.6-1979.8,0c0-1.3,0-2.7,0-4c-315-58.5,2294.7-58.5,1979.8,0
					C1950.1,482.9,1950.1,484.2,1950.1,485.6z"/>
			</g>
			<g class="st2">
				<path class="st3" d="M-30.1,444.2c-292.8-93.1,2273.4-93.1,1980.6,0c0,0.7,0,1.3,0,2c294-91.3-2274.6-91.3-1980.6,0
					C-30.1,445.5-30.1,444.8-30.1,444.2z"/>
				<path class="st3" d="M1950.1,447.3c297.9-90.6-2277.6-90.6-1979.7,0c0-1.3,0-2.7,0-4c-295.4-94.2,2275.1-94.2,1979.7,0
					C1950,444.6,1950.1,446,1950.1,447.3z"/>
			</g>
			<g class="st2">
				<path class="st3" d="M-30.2,513.1c-320.6-27.5,2301.4-27.5,1980.8,0c0,0.7,0,1.3,0,2c320.9-25.6-2301.7-25.6-1980.8,0
					C-30.2,514.4-30.2,513.8-30.2,513.1z"/>
				<path class="st3" d="M1950.1,516.1c324.5-24.6-2304.3-24.6-1979.8,0c0-1.3,0-2.7,0-4c-323.8-28.6,2303.6-28.6,1979.8,0
					C1950.1,513.5,1950.1,514.8,1950.1,516.1z"/>
			</g>
			<g class="st2">
				<path class="st3" d="M-28.7,153.6c163.6-194.1,1814.2-194.1,1977.8,0c0,0.7,0,1.3,0,2C1790.5-39.5,129.9-39.5-28.7,155.6
					C-28.7,154.9-28.7,154.3-28.7,153.6z"/>
				<path class="st3" d="M1949.4,156.9c-154.7-196-1823.6-196-1978.3,0c0-1.3,0-2.7,0-4c164.8-194,1813.5-194,1978.3,0
					C1949.4,154.2,1949.4,155.6,1949.4,156.9z"/>
			</g>
			<g class="st2">
				<path class="st3" d="M-28.5,123.1c243.5-175.6,1733.8-175.6,1977.3,0c0,0.7,0,1.3,0,2C1710.7-52,209.7-52-28.5,125.1
					C-28.5,124.4-28.5,123.8-28.5,123.1z"/>
				<path class="st3" d="M1949.2,126.4C1714.9-51.8,205.5-51.8-28.8,126.4c0-1.3,0-2.7,0-4c245.3-175.2,1732.8-175.2,1978.1,0
					C1949.2,123.7,1949.2,125,1949.2,126.4z"/>
			</g>
			<g class="st2">
				<path class="st3" d="M-29.6,291.1C-150.5,94,2070.9,94,1950,291.1c0,0.7,0,1.3,0,2c124.1-196.3-2103.7-196.3-1979.6,0
					C-29.6,292.4-29.6,291.7-29.6,291.1z"/>
				<path class="st3" d="M1949.8,294.4C2078.1,98-157.7,98-29.4,294.4c0-1.3,0-2.7,0-4c-121.8-197.9,2101-197.9,1979.2,0
					C1949.8,291.7,1949.8,293,1949.8,294.4z"/>
			</g>
			<g class="st2">
				<path class="st3" d="M-29.8,352.3c-207.9-165.4,2188-165.4,1980.1,0c0,0.7,0,1.3,0,2c210.3-164.1-2190.4-164.1-1980.1,0
					C-29.9,353.6-29.8,353-29.8,352.3z"/>
				<path class="st3" d="M1949.9,355.5c214.5-163.8-2193.9-163.8-1979.5,0c0-1.3,0-2.7,0-4c-209.6-166.4,2189-166.4,1979.4,0
					C1949.9,352.9,1949.9,354.2,1949.9,355.5z"/>
			</g>
			<g class="st2">
				<path class="st3" d="M-29.1,214.7c21.9-210.3,1956.7-210.3,1978.7,0c0,0.7,0,1.3,0,2C1931.8,6.3-11.4,6.3-29.2,216.6
					C-29.1,216-29.1,215.3-29.1,214.7z"/>
				<path class="st3" d="M1949.6,218C1935.9,7.1-15.5,7.1-29.2,218c0-1.3,0-2.7,0-4C-7,3.3,1927.4,3.3,1949.6,214
					C1949.6,215.3,1949.6,216.6,1949.6,218z"/>
			</g>
			<g class="st2">
				<path class="st3" d="M-30.2,474.8c-308.9-64.7,2289.7-64.7,1980.7,0c0,0.7,0,1.3,0,2c309.8-62.8-2290.5-62.8-1980.7,0
					C-30.2,476.1-30.2,475.5-30.2,474.8z"/>
				<path class="st3" d="M1950.1,477.9c313.5-62-2293.3-62-1979.8,0c0-1.3,0-2.7,0-4c-311.8-65.8,2291.6-65.8,1979.7,0
					C1950.1,475.2,1950.1,476.6,1950.1,477.9z"/>
			</g>
			<g class="st2">
				<path class="st3" d="M-30.2,505.4c-319-35.1,2299.8-35.1,1980.8,0c0,0.7,0,1.3,0,2c319.5-33.1-2300.2-33.1-1980.8,0
					C-30.2,506.8-30.2,506.1-30.2,505.4z"/>
				<path class="st3" d="M1950.1,508.5c323-32.2-2302.8-32.2-1979.8,0c0-1.3,0-2.7,0-4c-322.1-36.1,2301.9-36.1,1979.8,0
					C1950.1,505.8,1950.1,507.2,1950.1,508.5z"/>
			</g>
			<g class="st2">
				<path class="st3" d="M-30.1,459.5c-301.6-79.1,2282.3-79.1,1980.7,0c0,0.7,0,1.3,0,2c302.7-77.2-2283.3-77.2-1980.7,0
					C-30.1,460.8-30.1,460.1-30.1,459.5z"/>
				<path class="st3" d="M1950.1,462.6c306.5-76.5-2286.2-76.5-1979.7,0c0-1.3,0-2.7,0-4c-304.4-80.2,2284.1-80.2,1979.7,0
					C1950.1,459.9,1950.1,461.3,1950.1,462.6z"/>
			</g>
			<g class="st2">
				<path class="st3" d="M-30.2,528.4c-322.6-12.4,2303.4-12.4,1980.8,0c0,0.7,0,1.3,0,2c322.7-10.4-2303.5-10.4-1980.8,0
					C-30.2,529.8-30.2,529.1-30.2,528.4z"/>
				<path class="st3" d="M1950.1,531.4c326.2-9.4-2306-9.4-1979.8,0c0-1.3,0-2.7,0-4c-325.9-13.4,2305.7-13.4,1979.8,0
					C1950.1,528.8,1950.1,530.1,1950.1,531.4z"/>
			</g>
			<g class="st2">
				<path class="st3" d="M-29.3,245.2c-39.8-209,2018.8-209,1979.1,0c0,0.7,0,1.3,0,2c43.5-208.7-2022.6-208.7-1979.1,0
					C-29.3,246.5-29.3,245.9-29.3,245.2z"/>
				<path class="st3" d="M1949.7,248.5c47.7-209-2026.7-209-1978.9,0c0-1.3,0-2.7,0-4c-40-209.6,2018.9-209.6,1978.9,0
					C1949.7,245.9,1949.7,247.2,1949.7,248.5z"/>
			</g>
			<g class="st2">
				<path class="st3" d="M-28.9,184.1c89.7-205.5,1888.5-205.5,1978.3,0c0,0.7,0,1.3,0,2c-85.2-206-1893.1-206-1978.3,0
					C-28.9,185.4-28.9,184.8-28.9,184.1z"/>
				<path class="st3" d="M1949.5,187.4C1868.3-19.2,52.1-19.2-29.1,187.4c0-1.3,0-2.7,0-4c90.4-205.6,1888.1-205.6,1978.5,0
					C1949.5,184.8,1949.5,186.1,1949.5,187.4z"/>
			</g>
			<g class="st2">
				<path class="st3" d="M-30,413.5c-270.6-119.7,2251.1-119.7,1980.5,0c0,0.7,0,1.3,0,2c272.2-118.1-2252.7-118.1-1980.5,0
					C-30,414.9-30,414.2-30,413.5z"/>
				<path class="st3" d="M1950,416.7c276.2-117.5-2255.8-117.5-1979.6,0c0-1.3,0-2.7,0-4c-272.9-120.8,2252.5-120.8,1979.6,0
					C1950,414,1950,415.4,1950,416.7z"/>
			</g>
			<g class="st2">
				<path class="st3" d="M-30.2,520.8c-321.8-20,2302.6-20,1980.8,0c0,0.7,0,1.3,0,2c322-18-2302.8-18-1980.8,0
					C-30.2,522.1-30.2,521.4-30.2,520.8z"/>
				<path class="st3" d="M1950.1,523.8c325.5-17-2305.3-17-1979.8,0c0-1.3,0-2.7,0-4c-325-21,2304.8-21,1979.8,0
					C1950.1,521.1,1950.1,522.5,1950.1,523.8z"/>
			</g>
			<g class="st2">
				<path class="st3" d="M-30.2,490.1c-314.7-50,2295.5-50,1980.7,0c0,0.7,0,1.3,0,2c315.4-48.1-2296.1-48.1-1980.8,0
					C-30.2,491.4-30.2,490.8-30.2,490.1z"/>
				<path class="st3" d="M1950.1,493.2c319.1-47.2-2298.8-47.2-1979.8,0c0-1.3,0-2.7,0-4c-317.8-51.1,2297.5-51.1,1979.8,0
					C1950.1,490.5,1950.1,491.9,1950.1,493.2z"/>
			</g>
			<g class="st2">
				<path class="st3" d="M-30.2,536.1c-323-4.8,2303.8-4.8,1980.8,0c0,0.7,0,1.3,0,2c323.1-2.8-2303.9-2.8-1980.8,0
					C-30.2,537.4-30.2,536.8-30.2,536.1z"/>
				<path class="st3" d="M1950.1,539.1c326.5-1.8-2306.3-1.8-1979.8,0c0-1.3,0-2.7,0-4c-326.4-5.8,2306.2-5.8,1979.8,0
					C1950.1,536.4,1950.1,537.8,1950.1,539.1z"/>
			</g>
			<g class="st2">
				<path class="st3" d="M-29.7,306.4c-145-190.7,2124.7-190.7,1979.7,0c0,0.7,0,1.3,0,2c148-189.8-2127.7-189.8-1979.7,0
					C-29.7,307.7-29.7,307-29.7,306.4z"/>
				<path class="st3" d="M1949.8,309.7c152.1-189.7-2131.4-189.7-1979.3,0c0-1.3,0-2.7,0-4c-146.1-191.6,2125.3-191.6,1979.2,0
					C1949.8,307,1949.8,308.3,1949.8,309.7z"/>
			</g>
			<g class="st2">
				<path class="st3" d="M-30.1,428.8c-282.4-106.7,2263-106.7,1980.6,0c0,0.7,0,1.3,0,2c283.9-105-2264.4-105-1980.6,0
					C-30.1,430.2-30.1,429.5-30.1,428.8z"/>
				<path class="st3" d="M1950,432c287.8-104.3-2267.5-104.3-1979.7,0c0-1.3,0-2.7,0-4C-314.6,320.2,2235,320.2,1950,428
					C1950,429.3,1950,430.7,1950,432z"/>
			</g>
			<g class="st2">
				<path class="st3" d="M-29.9,367.6c-225.9-155.1,2206.1-155.1,1980.2,0c0,0.7,0,1.3,0,2c228.1-153.7-2208.3-153.7-1980.2,0
					C-29.9,368.9-29.9,368.3-29.9,367.6z"/>
				<path class="st3" d="M1950,370.8c232.2-153.3-2211.7-153.3-1979.5,0c0-1.3,0-2.7,0-4c-227.7-156.1,2207.2-156.1,1979.5,0
					C1949.9,368.2,1949.9,369.5,1950,370.8z"/>
			</g>
			<g class="st2">
				<path class="st3" d="M-30,398.2c-257.2-132.2,2237.6-132.2,1980.4,0c0,0.7,0,1.3,0,2c259-130.6-2239.4-130.6-1980.4,0
					C-30,399.5-30,398.9-30,398.2z"/>
				<path class="st3" d="M1950,401.4c263.1-130.1-2242.7-130.1-1979.6,0c0-1.3,0-2.7,0-4c-259.4-133.3,2239-133.3,1979.6,0
					C1950,398.7,1950,400.1,1950,401.4z"/>
			</g>
			<g class="st2">
				<path class="st3" d="M-29.5,275.8c-95.4-202.3,2074.8-202.3,1979.4,0c0,0.7,0,1.3,0,2c98.8-201.7-2078.2-201.7-1979.4,0
					C-29.5,277.1-29.5,276.5-29.5,275.8z"/>
				<path class="st3" d="M1949.8,279.1c103-201.8-2082.1-201.8-1979.1,0c0-1.3,0-2.7,0-4c-96.1-203,2075.2-203,1979.1,0
					C1949.7,276.4,1949.8,277.8,1949.8,279.1z"/>
			</g>
			<g class="st2">
				<path class="st3" d="M-29.8,337c-188.4-174.8,2168.4-174.8,1980,0c0,0.7,0,1.3,0,2c191.1-173.6-2171-173.6-1980,0
					C-29.8,338.3-29.8,337.6-29.8,337z"/>
				<path class="st3" d="M1949.9,340.2c195.2-173.4-2174.6-173.4-1979.4,0c0-1.3,0-2.7,0-4c-189.9-175.7,2169.3-175.7,1979.4,0
					C1949.9,337.6,1949.9,338.9,1949.9,340.2z"/>
			</g>
			<g class="st2">
				<path class="st3" d="M-30.2,551.4c-322.7,10.4,2303.5,10.4,1980.8,0c0,0.7,0,1.3,0,2c322.6,12.4-2303.4,12.4-1980.8,0
					C-30.2,552.7-30.2,552.1-30.2,551.4z"/>
				<path class="st3" d="M1950.1,554.4c325.9,13.4-2305.7,13.4-1979.8,0c0-1.3,0-2.7,0-4c-326.2,9.4,2306,9.4,1979.8,0
					C1950.1,551.7,1950.1,553.1,1950.1,554.4z"/>
			</g>
			<g class="st2">
				<path class="st3" d="M-30.2,543.8c-323.1,2.8,2303.9,2.8,1980.8,0c0,0.7,0,1.3,0,2c323,4.8-2303.8,4.8-1980.8,0
					C-30.2,545.1-30.2,544.4-30.2,543.8z"/>
				<path class="st3" d="M1950.1,546.7c326.4,5.8-2306.2,5.8-1979.8,0c0-1.3,0-2.7,0-4c-326.5,1.8,2306.3,1.8,1979.8,0
					C1950.1,544.1,1950.1,545.4,1950.1,546.7z"/>
			</g>
			<g class="st2">
				<path class="st3" d="M-30.2,605c-309.8,62.8,2290.5,62.8,1980.7,0c0,0.7,0,1.3,0,2c308.9,64.7-2289.7,64.7-1980.7,0
					C-30.2,606.4-30.2,605.7-30.2,605z"/>
				<path class="st3" d="M1950.1,607.9c311.8,65.8-2291.6,65.8-1979.7,0c0-1.3,0-2.7,0-4c-313.5,62,2293.3,62,1979.8,0
					C1950.1,605.3,1950.1,606.6,1950.1,607.9z"/>
			</g>
			<g class="st2">
				<path class="st3" d="M-30.1,620.4c-302.7,77.2,2283.3,77.2,1980.7,0c0,0.7,0,1.3,0,2c301.6,79.1-2282.3,79.1-1980.7,0
					C-30.1,621.7-30.1,621-30.1,620.4z"/>
				<path class="st3" d="M1950.1,623.2c304.4,80.2-2284.1,80.2-1979.7,0c0-1.3,0-2.7,0-4c-306.5,76.5,2286.2,76.5,1979.7,0
					C1950.1,620.6,1950.1,621.9,1950.1,623.2z"/>
			</g>
			<g class="st2">
				<path class="st3" d="M-30.2,574.4c-319.5,33.1,2300.2,33.1,1980.8,0c0,0.7,0,1.3,0,2c319,35.1-2299.8,35.1-1980.8,0
					C-30.2,575.7-30.2,575.1-30.2,574.4z"/>
				<path class="st3" d="M1950.1,577.3c322.1,36.1-2301.9,36.1-1979.8,0c0-1.3,0-2.7,0-4c-323,32.2,2302.8,32.2,1979.8,0
					C1950.1,574.7,1950.1,576,1950.1,577.3z"/>
			</g>
			<g class="st2">
				<path class="st3" d="M-29.7,773.5c-148,189.8,2127.7,189.8,1979.7,0c0,0.7,0,1.3,0,2c145,190.7-2124.7,190.7-1979.7,0
					C-29.7,774.8-29.7,774.1-29.7,773.5z"/>
				<path class="st3" d="M1949.8,776.2c146.1,191.6-2125.3,191.6-1979.2,0c0-1.3,0-2.7,0-4c-152.1,189.7,2131.4,189.7,1979.3,0
					C1949.8,773.5,1949.8,774.8,1949.8,776.2z"/>
			</g>
			<g class="st2">
				<path class="st3" d="M-29.2,865.2c17.8,210.4,1960.9,210.4,1978.7,0c0,0.7,0,1.3,0,2c-22,210.3-1956.7,210.3-1978.7,0
					C-29.1,866.5-29.1,865.9-29.2,865.2z"/>
				<path class="st3" d="M1949.6,867.9c-22.2,210.6-1956.6,210.6-1978.7,0c0-1.3,0-2.7,0-4c13.7,210.8,1965.1,210.8,1978.8,0
					C1949.6,865.2,1949.6,866.5,1949.6,867.9z"/>
			</g>
			<g class="st2">
				<path class="st3" d="M-29.9,712.3C-258,866,2178.4,866,1950.3,712.3c0,0.7,0,1.3,0,2c225.9,155.1-2206.1,155.1-1980.2,0
					C-29.9,713.6-29.9,712.9-29.9,712.3z"/>
				<path class="st3" d="M1949.9,715c227.7,156.1-2207.2,156.1-1979.5,0c0-1.3,0-2.7,0-4c-232.2,153.3,2211.7,153.3,1979.5,0
					C1949.9,712.3,1949.9,713.7,1949.9,715z"/>
			</g>
			<g class="st2">
				<path class="st3" d="M-28.7,926.3c158.7,195.1,1819.2,195.1,1977.8,0c0,0.7,0,1.3,0,2c-163.6,194.1-1814.2,194.1-1977.8,0
					C-28.7,927.6-28.7,926.9-28.7,926.3z"/>
				<path class="st3" d="M1949.3,928.9c-164.8,194-1813.5,194-1978.3,0c0-1.3,0-2.7,0-4c154.7,196,1823.6,196,1978.3,0
					C1949.4,926.3,1949.4,927.6,1949.3,928.9z"/>
			</g>
			<g class="st2">
				<path class="st3" d="M-30.2,589.7c-315.4,48.1,2296.1,48.1,1980.8,0c0,0.7,0,1.3,0,2c314.7,50-2295.5,50-1980.7,0
					C-30.2,591-30.2,590.4-30.2,589.7z"/>
				<path class="st3" d="M1950.1,592.6c317.8,51.1-2297.5,51.1-1979.8,0c0-1.3,0-2.7,0-4c-319.1,47.2,2298.8,47.2,1979.8,0
					C1950.1,590,1950.1,591.3,1950.1,592.6z"/>
			</g>
			<g class="st2">
				<path class="st3" d="M-30.2,559.1c-322,18,2302.8,18,1980.8,0c0,0.7,0,1.3,0,2c321.8,20-2302.6,20-1980.8,0
					C-30.2,560.4-30.2,559.7-30.2,559.1z"/>
				<path class="st3" d="M1950.1,562c325,21-2304.8,21-1979.8,0c0-1.3,0-2.7,0-4c-325.5,17,2305.3,17,1979.8,0
					C1950.1,559.4,1950.1,560.7,1950.1,562z"/>
			</g>
			<g class="st2">
				<path class="st3" d="M-30.1,651c-283.9,105,2264.4,105,1980.6,0c0,0.7,0,1.3,0,2c282.4,106.7-2263,106.7-1980.6,0
					C-30.1,652.3-30.1,651.7-30.1,651z"/>
				<path class="st3" d="M1950,653.8c284.9,107.8-2264.6,107.8-1979.7,0c0-1.3,0-2.7,0-4c-287.8,104.3,2267.5,104.3,1979.7,0
					C1950,651.2,1950,652.5,1950,653.8z"/>
			</g>
			<g class="st2">
				<path class="st3" d="M-28.9,895.7c85.2,206,1893.1,206,1978.3,0c0,0.7,0,1.3,0,2c-89.7,205.5-1888.5,205.5-1978.3,0
					C-28.9,897.1-28.9,896.4-28.9,895.7z"/>
				<path class="st3" d="M1949.5,898.4c-90.4,205.6-1888.1,205.6-1978.5,0c0-1.3,0-2.7,0-4c81.1,206.7,1897.4,206.7,1978.6,0
					C1949.5,895.7,1949.5,897.1,1949.5,898.4z"/>
			</g>
			<g class="st2">
				<path class="st3" d="M-29.3,834.6c-43.5,208.7,2022.6,208.7,1979.1,0c0,0.7,0,1.3,0,2c39.8,209-2018.8,209-1979.1,0
					C-29.3,836-29.3,835.3-29.3,834.6z"/>
				<path class="st3" d="M1949.7,837.3c40,209.6-2018.9,209.6-1978.9,0c0-1.3,0-2.7,0-4c-47.7,209,2026.7,209,1978.9,0
					C1949.7,834.6,1949.7,836,1949.7,837.3z"/>
			</g>
			<g class="st2">
				<path class="st3" d="M-28.5,956.7c238.2,177,1739.2,177,1977.3,0c0,0.7,0,1.3,0,2c-243.5,175.6-1733.8,175.6-1977.3,0
					C-28.5,958.1-28.5,957.4-28.5,956.7z"/>
				<path class="st3" d="M1949.2,959.5c-245.3,175.2-1732.8,175.2-1978.1,0c0-1.3,0-2.7,0-4c234.4,178.1,1743.7,178.1,1978.1,0
					C1949.2,956.8,1949.2,958.1,1949.2,959.5z"/>
			</g>
			<g class="st2">
				<path class="st3" d="M-30.2,582.1c-317.6,40.6,2298.4,40.6,1980.8,0c0,0.7,0,1.3,0,2c317.1,42.6-2297.8,42.6-1980.8,0
					C-30.2,583.4-30.2,582.7-30.2,582.1z"/>
				<path class="st3" d="M1950.1,585c320.1,43.6-2299.9,43.6-1979.8,0c0-1.3,0-2.7,0-4c-321.2,39.7,2301,39.7,1979.8,0
					C1950.1,582.3,1950.1,583.7,1950.1,585z"/>
			</g>
			<g class="st2">
				<path class="st3" d="M-30.2,566.7c-320.9,25.6,2301.7,25.6,1980.8,0c0,0.7,0,1.3,0,2c320.6,27.5-2301.4,27.5-1980.8,0
					C-30.2,568.1-30.2,567.4-30.2,566.7z"/>
				<path class="st3" d="M1950.1,569.7c323.8,28.6-2303.6,28.6-1979.8,0c0-1.3,0-2.7,0-4c-324.5,24.6,2304.3,24.6,1979.8,0
					C1950.1,567,1950.1,568.4,1950.1,569.7z"/>
			</g>
			<g class="st2">
				<path class="st3" d="M-30,681.6c-259,130.6,2239.4,130.6,1980.4,0c0,0.7,0,1.3,0,2c257.2,132.2-2237.6,132.2-1980.4,0
					C-30,683-30,682.3-30,681.6z"/>
				<path class="st3" d="M1950,684.4c259.4,133.3-2238.9,133.3-1979.6,0c0-1.3,0-2.7,0-4c-263,130.1,2242.6,130.1,1979.6,0
					C1950,681.8,1950,683.1,1950,684.4z"/>
			</g>
			<g class="st2">
				<path class="st3" d="M-29.8,742.9c-191,173.6,2171,173.6,1980,0c0,0.7,0,1.3,0,2c188.4,174.8-2168.4,174.8-1980,0
					C-29.8,744.2-29.8,743.5-29.8,742.9z"/>
				<path class="st3" d="M1949.9,745.6c189.9,175.7-2169.3,175.7-1979.4,0c0-1.3,0-2.7,0-4c-195.2,173.4,2174.6,173.4,1979.4,0
					C1949.9,742.9,1949.9,744.3,1949.9,745.6z"/>
			</g>
			<g class="st2">
				<path class="st3" d="M-30.2,612.7c-306.4,70.1,2287.1,70.1,1980.7,0c0,0.7,0,1.3,0,2c305.5,71.9-2286.2,71.9-1980.7,0
					C-30.1,614-30.1,613.4-30.2,612.7z"/>
				<path class="st3" d="M1950.1,615.6c308.3,73-2288,73-1979.7,0c0-1.3,0-2.7,0-4c-310.2,69.3,2289.9,69.3,1979.7,0
					C1950.1,612.9,1950.1,614.3,1950.1,615.6z"/>
			</g>
			<g class="st2">
				<path class="st3" d="M-29.1,880.5c50.7,209,1927.8,209,1978.5,0c0,0.7,0,1.3,0,2c-55.1,208.7-1923.4,208.7-1978.5,0
					C-29,881.8-29,881.1-29.1,880.5z"/>
				<path class="st3" d="M1949.5,883.1c-55.5,208.9-1923.1,208.9-1978.6,0c0-1.3,0-2.7,0-4c46.7,209.5,1932,209.5,1978.7,0
					C1949.5,880.5,1949.5,881.8,1949.5,883.1z"/>
			</g>
			<g class="st2">
				<path class="st3" d="M-28.6,941.5c197.7,187,1779.9,187,1977.6,0c0,0.7,0,1.3,0,2c-202.8,185.8-1774.7,185.8-1977.6,0
					C-28.6,942.8-28.6,942.2-28.6,941.5z"/>
				<path class="st3" d="M1949.3,944.2c-204.3,185.6-1773.9,185.6-1978.2,0c0-1.3,0-2.7,0-4c193.8,188,1784.4,188,1978.2,0
					C1949.3,941.5,1949.3,942.9,1949.3,944.2z"/>
			</g>
			<g class="st2">
				<path class="st3" d="M-29.2,849.9c-13.6,210.3,1992.5,210.3,1978.9,0c0,0.7,0,1.3,0,2c9.7,210.4-1988.5,210.4-1978.9,0
					C-29.2,851.2-29.2,850.6-29.2,849.9z"/>
				<path class="st3" d="M1949.6,852.6c9.7,210.8-1988.5,210.8-1978.8,0c0-1.3,0-2.7,0-4c-17.8,210.6,1996.6,210.6,1978.9,0
					C1949.6,849.9,1949.6,851.2,1949.6,852.6z"/>
			</g>
			<g class="st2">
				<path class="st3" d="M-28.2,987.2c323.8,151.3,1653,151.3,1976.8,0c0,0.7,0,1.3,0,2c-329.6,149.4-1647.2,149.4-1976.8,0
					C-28.2,988.5-28.2,987.9-28.2,987.2z"/>
				<path class="st3" d="M1949.1,990c-331.9,148.7-1645.9,148.7-1977.8,0c0-1.3,0-2.7,0-4c320.2,152.6,1657.7,152.6,1977.8,0
					C1949.1,987.3,1949.1,988.6,1949.1,990z"/>
			</g>
			<g class="st2">
				<path class="st3" d="M-30.1,635.7c-294,91.3,2274.6,91.3,1980.6,0c0,0.7,0,1.3,0,2c292.8,93.1-2273.4,93.1-1980.6,0
					C-30.1,637-30.1,636.3-30.1,635.7z"/>
				<path class="st3" d="M1950,638.5c295.4,94.2-2275.1,94.2-1979.7,0c0-1.3,0-2.7,0-4c-297.9,90.6,2277.6,90.6,1979.7,0
					C1950.1,635.9,1950,637.2,1950,638.5z"/>
			</g>
			<g class="st2">
				<path class="st3" d="M-30.2,597.4c-312.8,55.5,2293.5,55.5,1980.7,0c0,0.7,0,1.3,0,2c312,57.4-2292.8,57.4-1980.7,0
					C-30.2,598.7-30.2,598-30.2,597.4z"/>
				<path class="st3" d="M1950.1,600.3c315,58.5-2294.7,58.5-1979.8,0c0-1.3,0-2.7,0-4c-316.5,54.6,2296.2,54.6,1979.8,0
					C1950.1,597.6,1950.1,599,1950.1,600.3z"/>
			</g>
			<g class="st2">
				<path class="st3" d="M-29.5,804.1c-98.8,201.7,2078.2,201.7,1979.4,0c0,0.7,0,1.3,0,2c95.4,202.3-2074.8,202.3-1979.4,0
					C-29.5,805.4-29.5,804.7-29.5,804.1z"/>
				<path class="st3" d="M1949.7,806.7c96.1,203-2075.2,203-1979.1,0c0-1.3,0-2.7,0-4c-103,201.8,2082.1,201.8,1979.1,0
					C1949.8,804.1,1949.7,805.4,1949.7,806.7z"/>
			</g>
			<g class="st2">
				<path class="st3" d="M-28.3,972c280.2,165.2,1696.8,165.2,1977.1,0c0,0.7,0,1.3,0,2c-285.8,163.5-1691.3,163.5-1977,0
					C-28.3,973.3-28.3,972.6-28.3,972z"/>
				<path class="st3" d="M1949.2,974.7c-287.8,163-1690.1,163-1977.9,0c0-1.3,0-2.7,0-4c276.5,166.4,1701.4,166.4,1978,0
					C1949.2,972.1,1949.2,973.4,1949.2,974.7z"/>
			</g>
			<g class="st2">
				<path class="st3" d="M-28.8,911c121.2,201.4,1856.9,201.4,1978.1,0c0,0.7,0,1.3,0,2c-125.9,200.7-1852.1,200.7-1978,0
					C-28.8,912.3-28.8,911.7-28.8,911z"/>
				<path class="st3" d="M1949.4,913.7c-126.9,200.7-1851.6,200.7-1978.4,0c0-1.3,0-2.7,0-4c117.2,202.2,1861.3,202.2,1978.4,0
					C1949.4,911,1949.4,912.3,1949.4,913.7z"/>
			</g>
			<g class="st2">
				<path class="st3" d="M-28.1,1002.5c368.9,135.4,1607.6,135.4,1976.5,0c0,0.7,0,1.3,0,2c-374.9,133.2-1601.6,133.2-1976.5,0
					C-28.1,1003.8-28.1,1003.1-28.1,1002.5z"/>
				<path class="st3" d="M1949,1005.2c-377.4,132.3-1600.2,132.3-1977.7,0c0-1.3,0-2.7,0-4c365.4,136.8,1612.3,136.8,1977.7,0
					C1949,1002.6,1949,1003.9,1949,1005.2z"/>
			</g>
			<g class="st2">
				<path class="st3" d="M-30,696.9c-244.3,142.5,2224.6,142.5,1980.3,0c0,0.7,0,1.3,0,2c242.3,144-2222.6,144-1980.3,0
					C-30,698.3-30,697.6-30,696.9z"/>
				<path class="st3" d="M1950,699.7c244.3,145.1-2223.8,145.1-1979.5,0c0-1.3,0-2.7,0-4c-248.4,142,2227.9,142,1979.6,0
					C1950,697,1950,698.4,1950,699.7z"/>
			</g>
			<g class="st2">
				<path class="st3" d="M-29.4,819.4c-71.9,205.9,2051.2,205.9,1979.3,0c0,0.7,0,1.3,0,2c68.3,206.3-2047.6,206.3-1979.2,0
					C-29.4,820.7-29.4,820-29.4,819.4z"/>
				<path class="st3" d="M1949.7,822c68.8,207-2047.8,207-1979,0c0-1.3,0-2.7,0-4c-76.1,206,2055.1,206,1979,0
					C1949.7,819.4,1949.7,820.7,1949.7,822z"/>
			</g>
			<g class="st2">
				<path class="st3" d="M-29.7,758.2c-170.3,182.2,2150.1,182.2,1979.9,0c0,0.7,0,1.3,0,2c167.5,183.2-2147.3,183.2-1979.8,0
					C-29.7,759.5-29.7,758.8-29.7,758.2z"/>
				<path class="st3" d="M1949.9,760.9C2118.6,945-198.2,945-29.5,760.9c0-1.3,0-2.7,0-4c-174.4,182,2153.8,182,1979.3,0
					C1949.9,758.2,1949.9,759.5,1949.9,760.9z"/>
			</g>
			<g class="st2">
				<path class="st3" d="M-29.6,788.8c-124.1,196.3,2103.7,196.3,1979.6,0c0,0.7,0,1.3,0,2c120.9,197.1-2100.5,197.1-1979.6,0
					C-29.6,790.1-29.6,789.4-29.6,788.8z"/>
				<path class="st3" d="M1949.8,791.5c121.8,197.9-2101,197.9-1979.2,0c0-1.3,0-2.7,0-4c-128.3,196.3,2107.5,196.3,1979.2,0
					C1949.8,788.8,1949.8,790.1,1949.8,791.5z"/>
			</g>
			<g class="st2">
				<path class="st3" d="M-30,666.3c-272.2,118.1,2252.7,118.1,1980.5,0c0,0.7,0,1.3,0,2C2221,788-300.6,788-30,668.3
					C-30,667.6-30,667-30,666.3z"/>
				<path class="st3" d="M1950,669.1C2222.9,790-302.5,790-29.6,669.1c0-1.3,0-2.7,0-4c-276.2,117.5,2255.8,117.5,1979.6,0
					C1950,666.5,1950,667.8,1950,669.1z"/>
			</g>
			<g class="st2">
				<path class="st3" d="M-29.9,727.6c-210.3,164.1,2190.4,164.1,1980.1,0c0,0.7,0,1.3,0,2c207.9,165.4-2188,165.4-1980.1,0
					C-29.8,728.9-29.9,728.2-29.9,727.6z"/>
				<path class="st3" d="M1949.9,730.3c209.6,166.4-2189,166.4-1979.4,0c0-1.3,0-2.7,0-4c-214.5,163.8,2193.9,163.8,1979.5,0
					C1949.9,727.6,1949.9,729,1949.9,730.3z"/>
			</g>
			<g class="st2">
				<path class="st3" d="M-30.1,643.3c-289.1,98.2,2269.7,98.2,1980.6,0c0,0.7,0,1.3,0,2c287.8,100-2268.4,100-1980.6,0
					C-30.1,644.7-30.1,644-30.1,643.3z"/>
				<path class="st3" d="M1950,646.2c290.4,101.1-2270,101.1-1979.7,0c0-1.3,0-2.7,0-4c-293.1,97.5,2272.8,97.5,1979.7,0
					C1950,643.5,1950,644.8,1950,646.2z"/>
			</g>
			<g class="st2">
				<path class="st3" d="M-30.1,628c-298.5,84.3,2279.2,84.3,1980.6,0c0,0.7,0,1.3,0,2c297.4,86.1-2278,86.1-1980.6,0
					C-30.1,629.3-30.1,628.7-30.1,628z"/>
				<path class="st3" d="M1950.1,630.9c300.1,87.3-2279.8,87.3-1979.7,0c0-1.3,0-2.7,0-4c-302.4,83.6,2282.1,83.6,1979.7,0
					C1950.1,628.2,1950.1,629.5,1950.1,630.9z"/>
			</g>
			<g class="st2">
				<path class="st3" d="M-29.8,750.5c-180.8,178,2160.8,178,1979.9,0c0,0.7,0,1.3,0,2c178.1,179.1-2158.1,179.1-1979.9,0
					C-29.8,751.8-29.8,751.2-29.8,750.5z"/>
				<path class="st3" d="M1949.9,753.2c179.5,180.1-2158.9,180.1-1979.3,0c0-1.3,0-2.7,0-4c-185,177.8,2164.4,177.8,1979.4,0
					C1949.9,750.6,1949.9,751.9,1949.9,753.2z"/>
			</g>
			<g class="st2">
				<path class="st3" d="M-29.6,781.1c-136.2,193.2,2115.9,193.2,1979.6,0c0,0.7,0,1.3,0,2c133.1,194-2112.8,194-1979.6,0
					C-29.6,782.4-29.6,781.8-29.6,781.1z"/>
				<path class="st3" d="M1949.8,783.8c134.1,194.9-2113.3,194.9-1979.2,0c0-1.3,0-2.7,0-4c-140.4,193.2,2119.7,193.2,1979.2,0
					C1949.8,781.1,1949.8,782.5,1949.8,783.8z"/>
			</g>
			<g class="st2">
				<path class="st3" d="M-30,689.3c-251.8,136.7,2232.2,136.7,1980.4,0c0,0.7,0,1.3,0,2c249.9,138.2-2230.3,138.2-1980.4,0
					C-30,690.6-30,689.9-30,689.3z"/>
				<path class="st3" d="M1950,692.1c252,139.3-2231.6,139.3-1979.6,0c0-1.3,0-2.7,0-4c-255.9,136.1,2235.5,136.1,1979.6,0
					C1950,689.4,1950,690.7,1950,692.1z"/>
			</g>
			<g class="st2">
				<path class="st3" d="M-28.7,933.9c178,191.3,1799.7,191.3,1977.7,0c0,0.7,0,1.3,0,2C1766,1126,154.4,1126-28.6,935.9
					C-28.6,935.2-28.7,934.5-28.7,933.9z"/>
				<path class="st3" d="M1949.3,936.6c-184.4,190-1793.9,190-1978.2,0c0-1.3,0-2.7,0-4c174.1,192.2,1804.2,192.2,1978.3,0
					C1949.3,933.9,1949.3,935.2,1949.3,936.6z"/>
			</g>
			<g class="st2">
				<path class="st3" d="M-27.9,1017.7c415.5,117.4,1560.7,117.4,1976.3,0c0,0.7,0,1.3,0,2c-421.6,114.9-1554.6,114.9-1976.2,0
					C-27.9,1019-27.9,1018.3-27.9,1017.7z"/>
				<path class="st3" d="M1949,1020.5c-424.5,113.8-1553,113.8-1977.5,0c0-1.3,0-2.7,0-4c412,118.9,1565.5,118.9,1977.5,0
					C1949,1017.8,1949,1019.1,1949,1020.5z"/>
			</g>
			<g class="st2">
				<path class="st3" d="M-29.1,872.8c34.1,209.9,1944.5,209.9,1978.6,0c0,0.7,0,1.3,0,2c-38.3,209.7-1940.2,209.7-1978.6,0
					C-29.1,874.2-29.1,873.5-29.1,872.8z"/>
				<path class="st3" d="M1949.5,875.5c-38.7,210-1940,210-1978.7,0c0-1.3,0-2.7,0-4c30,210.4,1948.7,210.4,1978.7,0
					C1949.5,872.8,1949.5,874.2,1949.5,875.5z"/>
			</g>
			<g class="st2">
				<path class="st3" d="M-27.6,1048.1c513.3,74.6,1462.3,74.6,1975.6,0c0,0.7,0,1.3,0,2c-519.8,71.5-1455.8,71.5-1975.6,0
					C-27.6,1049.4-27.6,1048.8-27.6,1048.1z"/>
				<path class="st3" d="M1948.8,1051c-523.3,70-1453.9,70-1977.2,0c0-1.3,0-2.7,0-4c510,76.3,1467.2,76.3,1977.3,0
					C1948.8,1048.3,1948.8,1049.6,1948.8,1051z"/>
			</g>
			<g class="st2">
				<path class="st3" d="M-29.9,719.9c-219.4,159,2199.5,159,1980.2,0c0,0.7,0,1.3,0,2c217.1,160.3-2197.2,160.3-1980.1,0
					C-29.9,721.2-29.9,720.6-29.9,719.9z"/>
				<path class="st3" d="M1949.9,722.7C2168.8,884-248.4,884-29.5,722.7c0-1.3,0-2.7,0-4c-223.5,158.6,2203,158.6,1979.5,0
					C1949.9,720,1949.9,721.3,1949.9,722.7z"/>
			</g>
			<g class="st2">
				<path class="st3" d="M-30.1,658.7c-278.2,111.6,2258.7,111.6,1980.5,0c0,0.7,0,1.3,0,2c276.7,113.3-2257.2,113.3-1980.5,0
					C-30.1,660-30.1,659.3-30.1,658.7z"/>
				<path class="st3" d="M1950,661.5c279.1,114.4-2258.8,114.4-1979.6,0c0-1.3,0-2.7,0-4c-282.2,110.9,2261.9,110.9,1979.7,0
					C1950,658.8,1950,660.1,1950,661.5z"/>
			</g>
			<g class="st2">
				<path class="st3" d="M-29.5,811.7c-85.5,203.9,2064.9,203.9,1979.3,0c0,0.7,0,1.3,0,2c82,204.5-2061.4,204.5-1979.3,0
					C-29.5,813-29.5,812.4-29.5,811.7z"/>
				<path class="st3" d="M1949.7,814.4c82.6,205.2-2061.7,205.2-1979.1,0c0-1.3,0-2.7,0-4c-89.7,204.1,2068.8,204.1,1979.1,0
					C1949.7,811.7,1949.7,813.1,1949.7,814.4z"/>
			</g>
			<g class="st2">
				<path class="st3" d="M-27.8,1032.9c463.6,97.1,1512.3,97.1,1976,0c0,0.7,0,1.3,0,2c-470,94.3-1505.9,94.3-1975.9,0
					C-27.8,1034.2-27.8,1033.5-27.8,1032.9z"/>
				<path class="st3" d="M1948.9,1035.7c-473.2,93.1-1504.2,93.1-1977.4,0c0-1.3,0-2.7,0-4c460.3,98.7,1517.1,98.7,1977.4,0
					C1948.9,1033.1,1948.9,1034.4,1948.9,1035.7z"/>
			</g>
			<g class="st2">
				<path class="st3" d="M-28.1,994.8c346.2,143.6,1630.5,143.6,1976.7,0c0,0.7,0,1.3,0,2c-352,141.5-1624.6,141.5-1976.6,0
					C-28.1,996.2-28.1,995.5-28.1,994.8z"/>
				<path class="st3" d="M1949.1,997.6c-354.5,140.8-1623.3,140.8-1977.7,0c0-1.3,0-2.7,0-4c342.6,145,1635.2,145,1977.8,0
					C1949.1,994.9,1949.1,996.3,1949.1,997.6z"/>
			</g>
			<g class="st2">
				<path class="st3" d="M-27.5,1063.3c564.5,49.7,1410.9,49.7,1975.3,0c0,0.7,0,1.3,0,2c-571.2,46.3-1404.1,46.3-1975.3,0
					C-27.5,1064.6-27.5,1064-27.5,1063.3z"/>
				<path class="st3" d="M1948.7,1066.2c-575,44.6-1402.1,44.6-1977.1,0c0-1.3,0-2.7,0-4c561.3,51.5,1415.8,51.5,1977.1,0
					C1948.7,1063.5,1948.7,1064.9,1948.7,1066.2z"/>
			</g>
			<g class="st2">
				<path class="st3" d="M-29.9,704.6c-236.4,148.2,2216.6,148.2,1980.3,0c0,0.7,0,1.3,0,2c234.3,149.6-2214.5,149.6-1980.3,0
					C-29.9,705.9-29.9,705.3-29.9,704.6z"/>
				<path class="st3" d="M1950,707.4c236.2,150.7-2215.7,150.7-1979.5,0c0-1.3,0-2.7,0-4c-240.5,147.8,2220,147.8,1979.5,0
					C1950,704.7,1950,706,1950,707.4z"/>
			</g>
			<g class="st2">
				<path class="st3" d="M-30,674c-265.8,124.4,2246.2,124.4,1980.4,0c0,0.7,0,1.3,0,2C2214.5,802-294.1,802-30,676
					C-30,675.3-30,674.6-30,674z"/>
				<path class="st3" d="M1950,676.8c266.3,127.1-2245.9,127.1-1979.6,0c0-1.3,0-2.7,0-4c-269.8,123.9,2249.4,123.9,1979.6,0
					C1950,674.1,1950,675.4,1950,676.8z"/>
			</g>
			<g class="st2">
				<path class="st3" d="M-29.3,842.3c-28.8,209.7,2007.8,209.7,1979,0c0,0.7,0,1.3,0,2c24.9,209.9-2003.9,209.9-1979,0
					C-29.3,843.6-29.3,842.9-29.3,842.3z"/>
				<path class="st3" d="M1949.6,844.9c25,210.4-2003.9,210.4-1978.9,0c0-1.3,0-2.7,0-4c-32.9,210,2011.8,210,1978.9,0
					C1949.6,842.3,1949.6,843.6,1949.6,844.9z"/>
			</g>
			<g class="st2">
				<path class="st3" d="M-28.9,903.4c103,203.9,1875.2,203.9,1978.2,0c0,0.7,0,1.3,0,2c-107.6,203.3-1870.5,203.3-1978.1,0
					C-28.9,904.7-28.9,904-28.9,903.4z"/>
				<path class="st3" d="M1949.4,906C1841,1109.4,79.4,1109.4-29,906c0-1.3,0-2.7,0-4c99,204.6,1879.5,204.6,1978.5,0
					C1949.4,903.4,1949.4,904.7,1949.4,906z"/>
			</g>
			<g class="st2">
				<path class="st3" d="M-29.7,765.8C-189,952,2109.4,952,1950.1,765.8c0,0.7,0,1.3,0,2c156.4,187.1-2136.2,187.1-1979.8,0
					C-29.7,767.1-29.7,766.5-29.7,765.8z"/>
				<path class="st3" d="M1949.8,768.5c157.6,188-2136.9,188-1979.3,0c0-1.3,0-2.7,0-4c-163.5,186,2142.8,186,1979.3,0
					C1949.8,765.9,1949.8,767.2,1949.8,768.5z"/>
			</g>
			<g class="st2">
				<path class="st3" d="M-27.9,1025.3c439.4,107.5,1536.7,107.5,1976.1,0c0,0.7,0,1.3,0,2c-445.6,104.9-1530.4,104.9-1976.1,0
					C-27.8,1026.6-27.8,1025.9-27.9,1025.3z"/>
				<path class="st3" d="M1948.9,1028.1c-448.6,103.7-1528.8,103.7-1977.4,0c0-1.3,0-2.7,0-4c436,109.1,1541.5,109.1,1977.5,0
					C1948.9,1025.4,1948.9,1026.8,1948.9,1028.1z"/>
			</g>
			<g class="st2">
				<path class="st3" d="M-27.5,1055.7c538.7,62.4,1436.8,62.4,1975.5,0c0,0.7,0,1.3,0,2c-545.3,59.2-1430.1,59.2-1975.5,0
					C-27.5,1057-27.5,1056.4-27.5,1055.7z"/>
				<path class="st3" d="M1948.8,1058.6c-549,57.6-1428.2,57.6-1977.1,0c0-1.3,0-2.7,0-4c535.5,64.2,1441.7,64.2,1977.2,0
					C1948.8,1055.9,1948.8,1057.3,1948.8,1058.6z"/>
			</g>
			<g class="st2">
				<path class="st3" d="M-28,1010.1c392,126.6,1584.4,126.6,1976.4,0c0,0.7,0,1.3,0,2c-398.1,124.3-1578.3,124.3-1976.4,0
					C-28,1011.4-28,1010.7-28,1010.1z"/>
				<path class="st3" d="M1949,1012.9c-400.8,123.3-1576.8,123.3-1977.6,0c0-1.3,0-2.7,0-4c388.5,128.1,1589.1,128.1,1977.6,0
					C1949,1010.2,1949,1011.5,1949,1012.9z"/>
			</g>
			<g class="st2">
				<path class="st3" d="M-27.3,1078.5c617.1,22.4,1357.9,22.4,1975,0c0,0.7,0,1.3,0,2c-624.1,18.7-1350.9,18.7-1975,0
					C-27.3,1079.8-27.3,1079.1-27.3,1078.5z"/>
				<path class="st3" d="M1948.6,1081.4c-628.2,16.8-1348.7,16.8-1976.9,0c0-1.3,0-2.7,0-4c614.1,24.4,1362.9,24.4,1976.9,0
					C1948.7,1078.8,1948.7,1080.1,1948.6,1081.4z"/>
			</g>
			<g class="st2">
				<path class="st3" d="M-29.6,796.4c-111.6,199.2,2091.1,199.2,1979.5,0c0,0.7,0,1.3,0,2c108.3,199.8-2087.8,199.8-1979.5,0
					C-29.5,797.7-29.5,797.1-29.6,796.4z"/>
				<path class="st3" d="M1949.8,799.1c109.1,200.6-2088.3,200.6-1979.1,0c0-1.3,0-2.7,0-4c-115.8,199.2,2095,199.2,1979.2,0
					C1949.8,796.4,1949.8,797.8,1949.8,799.1z"/>
			</g>
			<g class="st2">
				<path class="st3" d="M-29.8,735.2c-200.9,169,2180.9,169,1980,0c0,0.7,0,1.3,0,2c198.4,170.2-2178.4,170.2-1980,0
					C-29.8,736.5-29.8,735.9-29.8,735.2z"/>
				<path class="st3" d="M1949.9,738c199.9,171.2-2179.3,171.2-1979.4,0c0-1.3,0-2.7,0-4c-205,168.7,2184.5,168.7,1979.4,0
					C1949.9,735.3,1949.9,736.6,1949.9,738z"/>
			</g>
			<g class="st2">
				<path class="st3" d="M-28.4,964.4c259,171.4,1718.2,171.4,1977.2,0c0,0.7,0,1.3,0,2c-264.5,169.8-1712.7,169.8-1977.2,0
					C-28.4,965.7-28.4,965-28.4,964.4z"/>
				<path class="st3" d="M1949.2,967.1c-266.3,169.3-1711.6,169.3-1978,0c0-1.3,0-2.7,0-4c255.3,172.5,1722.8,172.5,1978,0
					C1949.2,964.4,1949.2,965.8,1949.2,967.1z"/>
			</g>
			<g class="st2">
				<path class="st3" d="M-27.4,1070.9c590.6,36.4,1384.5,36.4,1975.2,0c0,0.7,0,1.3,0,2c-597.5,32.8-1377.7,32.8-1975.1,0
					C-27.4,1072.2-27.4,1071.6-27.4,1070.9z"/>
				<path class="st3" d="M1948.7,1073.8c-601.4,31-1375.6,31-1977,0c0-1.3,0-2.7,0-4c587.5,38.2,1389.5,38.2,1977,0
					C1948.7,1071.2,1948.7,1072.5,1948.7,1073.8z"/>
			</g>
			<g class="st2">
				<path class="st3" d="M-27.7,1040.5c488.3,86.1,1487.5,86.1,1975.8,0c0,0.7,0,1.3,0,2c-494.7,83.2-1481,83.2-1975.8,0
					C-27.7,1041.8-27.7,1041.1-27.7,1040.5z"/>
				<path class="st3" d="M1948.8,1043.3c-498,81.8-1479.2,81.8-1977.3,0c0-1.3,0-2.7,0-4c485,87.8,1492.4,87.8,1977.3,0
					C1948.9,1040.7,1948.8,1042,1948.8,1043.3z"/>
			</g>
			<g class="st2">
				<path class="st3" d="M-27.2,1086.1c644,7.9,1330.8,7.9,1974.8,0c0,0.7,0,1.3,0,2c-651.1,4-1323.7,4-1974.8,0
					C-27.2,1087.4-27.2,1086.7-27.2,1086.1z"/>
				<path class="st3" d="M1948.6,1089c-655.3,2-1321.5,2-1976.8,0c0-1.3,0-2.7,0-4c641.1,9.8,1335.8,9.8,1976.9,0
					C1948.6,1086.4,1948.6,1087.7,1948.6,1089z"/>
			</g>
			<g class="st2">
				<path class="st3" d="M-29.2,857.6c1.9,210.5,1976.9,210.5,1978.8,0c0,0.7,0,1.3,0,2c-6,210.5-1972.8,210.5-1978.8,0
					C-29.2,858.9-29.2,858.2-29.2,857.6z"/>
				<path class="st3" d="M1949.6,860.2c-6,210.9-1972.7,210.9-1978.8,0c0-1.3,0-2.7,0-4c-2.2,210.9,1981.1,210.9,1978.8,0
					C1949.6,857.6,1949.6,858.9,1949.6,860.2z"/>
			</g>
			<g class="st2">
				<path class="st3" d="M-28.3,979.6c301.8,158.5,1675.1,158.5,1977,0c0,0.7,0,1.3,0,2c-307.5,156.7-1669.4,156.7-1976.9,0
					C-28.3,980.9-28.3,980.3-28.3,979.6z"/>
				<path class="st3" d="M1949.1,982.3c-309.6,156.1-1668.2,156.1-1977.9,0c0-1.3,0-2.7,0-4c298.2,159.7,1679.7,159.7,1977.9,0
					C1949.1,979.7,1949.1,981,1949.1,982.3z"/>
			</g>
			<g class="st2">
				<path class="st3" d="M-28.8,918.6c139.7,198.4,1838.2,198.4,1977.9,0c0,0.7,0,1.3,0,2c-144.6,197.6-1833.3,197.6-1977.9,0
					C-28.8,919.9-28.8,919.3-28.8,918.6z"/>
				<path class="st3" d="M1949.4,921.3c-145.6,197.6-1832.7,197.6-1978.4,0c0-1.3,0-2.7,0-4c135.8,199.3,1842.6,199.3,1978.4,0
					C1949.4,918.6,1949.4,920,1949.4,921.3z"/>
			</g>
			<g class="st2">
				<path class="st3" d="M-28.5,949.1c217.7,182.2,1759.7,182.2,1977.5,0c0,0.7,0,1.3,0,2c-223,180.9-1754.5,180.9-1977.4,0
					C-28.5,950.4-28.5,949.8-28.5,949.1z"/>
				<path class="st3" d="M1949.3,951.8c-224.6,180.6-1753.5,180.6-1978.1,0c0-1.3,0-2.7,0-4c213.9,183.3,1764.3,183.3,1978.2,0
					C1949.3,949.2,1949.3,950.5,1949.3,951.8z"/>
			</g>
			<g class="st2">
				<path class="st3" d="M-29.4,827c-57.9,207.5,2037.1,207.5,1979.2,0c0,0.7,0,1.3,0,2c54.2,207.8-2033.4,207.8-1979.1,0
					C-29.4,828.3-29.4,827.7-29.4,827z"/>
				<path class="st3" d="M1949.7,829.7c54.6,208.4-2033.6,208.4-1979,0c0-1.3,0-2.7,0-4c-62.1,207.7,2041.1,207.7,1979,0
					C1949.7,827,1949.7,828.3,1949.7,829.7z"/>
			</g>
			<g class="st2">
				<path class="st3" d="M-29,888.1c67.8,207.7,1910.6,207.7,1978.4,0c0,0.7,0,1.3,0,2c-72.2,207.3-1906.1,207.3-1978.4,0
					C-29,889.4-29,888.8-29,888.1z"/>
				<path class="st3" d="M1949.5,890.8c-72.8,207.5-1905.8,207.5-1978.6,0c0-1.3,0-2.7,0-4c63.7,208.3,1914.9,208.3,1978.6,0
					C1949.5,888.1,1949.5,889.4,1949.5,890.8z"/>
			</g>
		</g>
	</g>
</g>
<g id="Layer_3">
</g>
</svg>
