<?xml version="1.0" encoding="UTF-8"?>
<svg id="Layer_1" data-name="Layer 1" xmlns="http://www.w3.org/2000/svg" viewBox="0 0 1920 1080">
  <defs>
    <style>
      .cls-1 {
        fill: #fff;
        stroke: #fff;
        stroke-miterlimit: 10;
        stroke-width: 2px;
      }

      .cls-2 {
        opacity: .54;
      }

      .cls-3 {
        isolation: isolate;
        opacity: .1;
      }
    </style>
  </defs>
  <g id="Layer_2" data-name="Layer 2" class="cls-2">
    <g id="Layer_1-2" data-name="Layer 1">
      <g>
        <g class="cls-3">
          <path class="cls-1" d="M-27.3,1.4c624.1-18.7,1350.9-18.7,1975,0V3.4C1330.6-19,589.8-19-27.3,3.4c0-.7,0-1.4,0-2Z"/>
          <path class="cls-1" d="M1948.7,4.4C1334.6-20,585.8-20-28.3,4.4V.4C599.9-16.4,1320.4-16.4,1948.6,.4c.1,1.3,.1,2.7,.1,4Z"/>
        </g>
        <g class="cls-3">
          <path class="cls-1" d="M-27.8,54.6c445.6-104.9,1530.4-104.9,1976.1,0v2c-439.4-107.6-1536.8-107.6-1976.2-.1,.1-.6,.1-1.3,.1-1.9Z"/>
          <path class="cls-1" d="M1948.9,57.7C1513-51.3,407.4-51.3-28.5,57.7v-4c448.6-103.7,1528.8-103.7,1977.4,0v4Z"/>
        </g>
        <g class="cls-3">
          <path class="cls-1" d="M-28,69.8c398.1-124.3,1578.3-124.3,1976.4,0v2C1556.4-54.9,364-54.9-28,71.8v-2Z"/>
          <path class="cls-1" d="M1949,73C1560.5-55.1,359.9-55.1-28.6,73v-4c400.8-123.4,1576.8-123.4,1977.6,0v4Z"/>
        </g>
        <g class="cls-3">
          <path class="cls-1" d="M-27.5,24.2c545.3-59.2,1430.1-59.2,1975.4,0v2C1409.2-36.3,511.1-36.3-27.6,26.2c.1-.7,.1-1.4,.1-2Z"/>
          <path class="cls-1" d="M1948.8,27.2C1413.3-37,507.1-37-28.4,27.2v-4c548.9-57.7,1428.2-57.7,1977.1,0,.1,1.4,.1,2.7,.1,4Z"/>
        </g>
        <g class="cls-3">
          <path class="cls-1" d="M-29.2,222.3c5.9-210.5,1972.8-210.5,1978.8,0v2C1947.7,13.8-27.3,13.8-29.2,224.3c0-.7,0-1.3,0-2Z"/>
          <path class="cls-1" d="M1949.6,225.6C1951.9,14.7-31.5,14.7-29.2,225.6v-4c6-210.9,1972.8-210.9,1978.8,0v4Z"/>
        </g>
        <g class="cls-3">
          <path class="cls-1" d="M-29.7,314c-156.4-187.1,2136.2-187.1,1979.8,0v2c159.3-186.1-2139.1-186.1-1979.8,0v-2Z"/>
          <path class="cls-1" d="M1949.8,317.3c163.5-186-2142.8-186-1979.3,0v-4c-157.6-188,2136.9-188,1979.3,0v4Z"/>
        </g>
        <g class="cls-3">
          <path class="cls-1" d="M-28.8,161.2c144.6-197.6,1833.3-197.6,1977.9,0v2C1809.5-35.2,110.9-35.2-28.8,163.2v-2Z"/>
          <path class="cls-1" d="M1949.4,164.5C1813.6-34.8,106.8-34.8-29,164.5v-4c145.6-197.6,1832.7-197.6,1978.4,0v4Z"/>
        </g>
        <g class="cls-3">
          <path class="cls-1" d="M-29.9,375.2c-234.3-149.6,2214.5-149.6,1980.3,0v2c236.3-148.2-2216.7-148.2-1980.3,0v-2Z"/>
          <path class="cls-1" d="M1950,378.5c240.5-147.8-2220-147.8-1979.5,0v-4c-236.2-150.7,2215.7-150.7,1979.5,0v4Z"/>
        </g>
        <g class="cls-3">
          <path class="cls-1" d="M-27.7,39.4c494.7-83.2,1481-83.2,1975.8,0v2C1459.8-44.7,460.6-44.7-27.7,41.4c0-.7,0-1.4,0-2Z"/>
          <path class="cls-1" d="M1948.9,42.5C1463.9-45.3,456.5-45.3-28.4,42.5v-4c498-81.8,1479.2-81.8,1977.3,0-.1,1.3,0,2.7,0,4Z"/>
        </g>
        <g class="cls-3">
          <path class="cls-1" d="M-27.4,9c597.4-32.8,1377.7-32.8,1975.1,0v2C1357.1-25.4,563.1-25.4-27.5,11c.1-.7,.1-1.4,.1-2Z"/>
          <path class="cls-1" d="M1948.7,12C1361.2-26.3,559.2-26.3-28.3,12v-4c601.4-31,1375.6-31,1977,0v4Z"/>
        </g>
        <g class="cls-3">
          <path class="cls-1" d="M-28.3,100.2c307.5-156.7,1669.4-156.7,1976.9,0v2C1646.8-56.3,273.5-56.3-28.4,102.2c.1-.6,.1-1.3,.1-2Z"/>
          <path class="cls-1" d="M1949.1,103.5C1651-56.3,269.4-56.3-28.7,103.5v-4c309.6-156.1,1668.2-156.1,1977.9,0-.1,1.3-.1,2.6-.1,4Z"/>
        </g>
        <g class="cls-3">
          <path class="cls-1" d="M-29.8,344.6c-198.4-170.2,2178.4-170.2,1980,0v2c200.9-169-2180.9-169-1980,0,0-.6,0-1.3,0-2Z"/>
          <path class="cls-1" d="M1949.9,347.9c205-168.7-2184.5-168.7-1979.4,0v-4c-199.9-171.2,2179.4-171.2,1979.4,0v4Z"/>
        </g>
        <g class="cls-3">
          <path class="cls-1" d="M-29.5,283.4c-108.4-199.8,2087.8-199.8,1979.5,0v2c111.7-199.2-2091.2-199.2-1979.5,0v-2Z"/>
          <path class="cls-1" d="M1949.8,286.7c115.9-199.2-2095-199.2-1979.2,0v-4c-109.2-200.6,2088.3-200.6,1979.1,0,.1,1.4,.1,2.7,.1,4Z"/>
        </g>
        <g class="cls-3">
          <path class="cls-1" d="M-30,405.9c-264.1-126,2244.5-126,1980.4,0v2c265.8-124.4-2246.2-124.4-1980.4,0v-2Z"/>
          <path class="cls-1" d="M1950,409.1c269.8-123.8-2249.4-123.8-1979.6,0v-4c-266.3-127.1,2245.9-127.1,1979.6,0v4Z"/>
        </g>
        <g class="cls-3">
          <path class="cls-1" d="M-27.6,31.8c519.8-71.5,1455.8-71.5,1975.6,0v2C1434.7-40.8,485.7-40.8-27.6,33.8c0-.7,0-1.4,0-2Z"/>
          <path class="cls-1" d="M1948.8,34.9C1438.8-41.4,481.6-41.4-28.5,34.9v-4c523.3-70,1453.9-70,1977.2,0,.1,1.3,.1,2.6,.1,4Z"/>
        </g>
        <g class="cls-3">
          <path class="cls-1" d="M-27.4,16.6c571.2-46.3,1404.1-46.3,1975.3,0v2C1383.4-31.2,537-31.2-27.5,18.5c0-.6,0-1.3,.1-1.9Z"/>
          <path class="cls-1" d="M1948.7,19.6C1387.4-31.9,532.9-31.9-28.4,19.6v-4c575-44.7,1402.1-44.7,1977.1,0v4Z"/>
        </g>
        <g class="cls-3">
          <path class="cls-1" d="M-28.5,130.7c223-180.9,1754.5-180.9,1977.4,0v2C1731.2-49.5,189.2-49.5-28.5,132.7v-2Z"/>
          <path class="cls-1" d="M1949.3,134C1735.4-49.3,185-49.3-28.9,134v-4c224.6-180.6,1753.5-180.6,1978.1,0,.1,1.3,.1,2.7,.1,4Z"/>
        </g>
        <g class="cls-3">
          <path class="cls-1" d="M-29,191.8C43.2-15.5,1877.1-15.5,1949.4,191.8v2C1881.6-13.9,38.8-13.9-29,193.7v-1.9Z"/>
          <path class="cls-1" d="M1949.5,195.1C1885.8-13.2,34.6-13.2-29.1,195.1v-4c72.8-207.5,1905.8-207.5,1978.6,0v4Z"/>
        </g>
        <g class="cls-3">
          <path class="cls-1" d="M-27.9,62.2c421.6-114.9,1554.6-114.9,1976.2,0v2C1532.8-53.2,387.6-53.2-27.9,64.2v-2Z"/>
          <path class="cls-1" d="M1949,65.4C1537-53.5,383.5-53.5-28.5,65.4v-4c424.5-113.9,1552.9-113.9,1977.5,0v4Z"/>
        </g>
        <g class="cls-3">
          <path class="cls-1" d="M-29.8,329.3c-178.1-179.1,2158.1-179.1,1979.9,0v2c180.8-178-2160.8-178-1979.9,0,0-.7,0-1.3,0-2Z"/>
          <path class="cls-1" d="M1949.9,332.6c185-177.8-2164.4-177.8-1979.4,0v-4c-179.5-180.1,2158.9-180.1,1979.3,0,.1,1.3,.1,2.7,.1,4Z"/>
        </g>
        <g class="cls-3">
          <path class="cls-1" d="M-30,390.6c-249.9-138.2,2230.3-138.2,1980.4,0v2c251.8-136.7-2232.2-136.7-1980.4,0v-2Z"/>
          <path class="cls-1" d="M1950,393.8c255.9-136.1-2235.5-136.1-1979.6,0v-4c-252-139.3,2231.6-139.3,1979.6,0v4Z"/>
        </g>
        <g class="cls-3">
          <path class="cls-1" d="M-29.6,298.7c-133.1-194,2112.8-194,1979.6,0v2c136.2-193.2-2115.9-193.2-1979.6,0,0-.7,0-1.3,0-2Z"/>
          <path class="cls-1" d="M1949.8,302c140.4-193.2-2119.7-193.2-1979.2,0v-4c-134.1-194.9,2113.3-194.9,1979.2,0v4Z"/>
        </g>
        <g class="cls-3">
          <path class="cls-1" d="M-30.1,436.5c-287.8-100,2268.4-100,1980.6,0v2c289.1-98.2-2269.7-98.2-1980.6,0,0-.7,0-1.3,0-2Z"/>
          <path class="cls-1" d="M1950,439.7c293.1-97.5-2272.8-97.5-1979.7,0v-4c-290.4-101.1,2270-101.1,1979.7,0v4Z"/>
        </g>
        <g class="cls-3">
          <path class="cls-1" d="M-28.1,85c352-141.6,1624.6-141.6,1976.6,0v2C1602.4-56.6,318-56.6-28.1,87v-2Z"/>
          <path class="cls-1" d="M1949.1,88.2C1606.6-56.8,313.9-56.8-28.7,88.2v-4c354.4-140.8,1623.3-140.8,1977.7,0,.1,1.4,.1,2.7,.1,4Z"/>
        </g>
        <g class="cls-3">
          <path class="cls-1" d="M-27.8,47c470-94.3,1505.9-94.3,1975.9,0v2C1484.5-48.1,435.8-48.1-27.9,49c.1-.7,.1-1.4,.1-2Z"/>
          <path class="cls-1" d="M1948.9,50.1C1488.6-48.6,431.8-48.6-28.5,50.1v-4c473.2-93.1,1504.2-93.1,1977.4,0v4Z"/>
        </g>
        <g class="cls-3">
          <path class="cls-1" d="M-29.4,252.9c-54.2-207.9,2033.4-207.9,1979.2,0v2C2007.7,47.4-87.3,47.4-29.4,254.9c0-.7,0-1.4,0-2Z"/>
          <path class="cls-1" d="M1949.7,256.2C2011.8,48.5-91.4,48.5-29.3,256.2v-4c-54.6-208.4,2033.6-208.4,1979,0v4Z"/>
        </g>
        <g class="cls-3">
          <path class="cls-1" d="M-30.1,421.2c-276.7-113.3,2257.2-113.3,1980.5,0v2c278.2-111.6-2258.7-111.6-1980.5,0,0-.7,0-1.4,0-2Z"/>
          <path class="cls-1" d="M1950,424.4c282.2-110.9-2261.9-110.9-1979.7,0v-4c-279-114.4,2258.8-114.4,1979.7-.1v4.1Z"/>
        </g>
        <g class="cls-3">
          <path class="cls-1" d="M-29.9,359.9c-217.1-160.3,2197.2-160.3,1980.1,0v2c219.4-159-2199.5-159-1980.2,0,.1-.6,.1-1.3,.1-2Z"/>
          <path class="cls-1" d="M1949.9,363.2c223.5-158.6-2203-158.6-1979.5,0v-4c-218.8-161.3,2198.3-161.3,1979.5,0v4Z"/>
        </g>
        <g class="cls-3">
          <path class="cls-1" d="M-30.1,451.8c-297.4-86.1,2278-86.1,1980.6,0v2c298.5-84.3-2279.2-84.3-1980.6,0,0-.7,0-1.3,0-2Z"/>
          <path class="cls-1" d="M1950.1,455c302.4-83.6-2282.1-83.6-1979.7,0v-4c-300.1-87.3,2279.8-87.3,1979.7,0v4Z"/>
        </g>
        <g class="cls-3">
          <path class="cls-1" d="M-28.6,146c183-190.2,1794.6-190.2,1977.6,0v2C1771.1-43.3,149.3-43.3-28.7,148c0-.7,.1-1.4,.1-2Z"/>
          <path class="cls-1" d="M1949.3,149.3C1775.3-42.9,145.1-42.9-29,149.3v-4c184.3-190,1793.9-190,1978.2,0,.1,1.3,.1,2.6,.1,4Z"/>
        </g>
        <g class="cls-3">
          <path class="cls-1" d="M-29.5,268.1c-82.1-204.5,2061.4-204.5,1979.3,0v2C2035.4,66.2-115,66.2-29.5,270.1v-2Z"/>
          <path class="cls-1" d="M1949.7,271.5C2039.4,67.4-119.1,67.4-29.4,271.5v-4c-82.6-205.1,2061.7-205.1,1979.1,0v4Z"/>
        </g>
        <g class="cls-3">
          <path class="cls-1" d="M-29.1,207C9.2-2.6,1911.2-2.6,1949.5,207v2C1915.4-.8,4.9-.8-29.1,209v-2Z"/>
          <path class="cls-1" d="M1949.6,210.3C1919.6,0,.8,0-29.2,210.3v-4C9.4-3.7,1910.8-3.7,1949.5,206.3c0,1.4,0,2.7,.1,4Z"/>
        </g>
        <g class="cls-3">
          <path class="cls-1" d="M-29.3,237.6c-24.9-209.9,2003.9-209.9,1979,0v2C1978.5,29.9-58.1,29.9-29.3,239.6c0-.7,0-1.4,0-2Z"/>
          <path class="cls-1" d="M1949.6,240.9C1982.5,30.9-62.2,30.9-29.3,240.9v-4c-25-210.4,2003.9-210.4,1978.9,0v4Z"/>
        </g>
        <g class="cls-3">
          <path class="cls-1" d="M-28.4,115.5c264.5-169.8,1712.7-169.8,1977.2,0v2C1689.8-53.9,230.6-53.9-28.4,117.5c0-.7,0-1.4,0-2Z"/>
          <path class="cls-1" d="M1949.2,118.7C1694-53.8,226.4-53.8-28.8,118.7v-4c266.3-169.3,1711.6-169.3,1978,0v4Z"/>
        </g>
        <g class="cls-3">
          <path class="cls-1" d="M-28.9,176.5c107.6-203.3,1870.5-203.3,1978.1,0v2C1846.2-25.4,74-25.4-29,178.5c.1-.7,.1-1.4,.1-2Z"/>
          <path class="cls-1" d="M1949.4,179.8C1850.4-24.8,69.9-24.8-29.1,179.8v-4c108.4-203.4,1870-203.4,1978.5,0v4Z"/>
        </g>
        <g class="cls-3">
          <path class="cls-1" d="M-28.2,92.6c329.6-149.3,1647.2-149.3,1976.8,0v2C1624.8-56.7,295.6-56.7-28.2,94.6c0-.7,0-1.3,0-2Z"/>
          <path class="cls-1" d="M1949.1,95.8C1628.9-56.8,291.5-56.8-28.7,95.8v-4c331.9-148.7,1645.9-148.7,1977.8,0,0,1.4,0,2.7,0,4Z"/>
        </g>
        <g class="cls-3">
          <path class="cls-1" d="M-28.1,77.4c374.8-133.2,1601.7-133.2,1976.5,0v2C1579.6-56,340.8-56-28.1,79.4v-2Z"/>
          <path class="cls-1" d="M1949,80.6C1583.7-56.2,336.7-56.2-28.6,80.6v-4c377.4-132.3,1600.2-132.3,1977.6,0v4Z"/>
        </g>
        <g class="cls-3">
          <path class="cls-1" d="M-29,199.4C26-9.3,1894.4-9.3,1949.4,199.4v2C1898.7-7.6,21.6-7.6-29.1,201.4c.1-.7,.1-1.4,.1-2Z"/>
          <path class="cls-1" d="M1949.5,202.7C1902.9-6.8,17.5-6.8-29.1,202.7v-4C26.4-10.2,1894-10.2,1949.5,198.7v4Z"/>
        </g>
        <g class="cls-3">
          <path class="cls-1" d="M-29.2,229.9c-9.7-210.4,1988.5-210.4,1978.9,0v2C1963.3,21.6-42.8,21.6-29.2,231.9c0-.7,0-1.3,0-2Z"/>
          <path class="cls-1" d="M1949.6,233.2C1967.4,22.6-47,22.6-29.2,233.2v-4c-9.7-210.8,1988.5-210.8,1978.8,0,0,1.4,0,2.7,0,4Z"/>
        </g>
        <g class="cls-3">
          <path class="cls-1" d="M-28.6,138.4c202.8-185.8,1774.8-185.8,1977.6,0v2C1751.3-46.6,169.1-46.6-28.6,140.4c0-.7,0-1.4,0-2Z"/>
          <path class="cls-1" d="M1949.3,141.6C1755.5-46.4,164.9-46.4-28.9,141.6v-4c204.3-185.6,1773.9-185.6,1978.2,0v4Z"/>
        </g>
        <g class="cls-3">
          <path class="cls-1" d="M-30,382.9c-242.3-144,2222.6-144,1980.3,0v2c244.3-142.5-2224.6-142.5-1980.3,0v-2Z"/>
          <path class="cls-1" d="M1950,386.1c248.4-142-2227.9-142-1979.6,0v-4c-244.3-145.1,2223.9-145.1,1979.6,0v4Z"/>
        </g>
        <g class="cls-3">
          <path class="cls-1" d="M-30.1,467.1c-305.5-71.9,2286.2-71.9,1980.7,0v2c306.4-70.1-2287.1-70.1-1980.7,0,0-.6,0-1.3,0-2Z"/>
          <path class="cls-1" d="M1950.1,470.3c310.2-69.3-2289.9-69.3-1979.7,0v-4c-308.3-73,2288-73,1979.7,0v4Z"/>
        </g>
        <g class="cls-3">
          <path class="cls-1" d="M-29.7,321.7c-167.5-183.2,2147.3-183.2,1979.8,0v2c170.3-182.2-2150.1-182.2-1979.9,0,.1-.7,.1-1.4,.1-2Z"/>
          <path class="cls-1" d="M1949.9,325c174.4-182-2153.8-182-1979.3,0v-4c-168.8-184.2,2148.1-184.2,1979.3,0v4Z"/>
        </g>
        <g class="cls-3">
          <path class="cls-1" d="M-30.2,497.8c-317.1-42.6,2297.8-42.6,1980.8,0v2c317.6-40.6-2298.4-40.6-1980.8,0,0-.7,0-1.4,0-2Z"/>
          <path class="cls-1" d="M1950.1,500.8c321.2-39.7-2301-39.7-1979.8,0v-4c-320.1-43.6,2299.9-43.6,1979.8,0v4Z"/>
        </g>
        <g class="cls-3">
          <path class="cls-1" d="M-28.8,168.9c125.9-200.7,1852.1-200.7,1978,0v2C1828.1-30.6,92.3-30.6-28.8,170.8v-1.9Z"/>
          <path class="cls-1" d="M1949.4,172.2C1832.3-30,88.1-30-29,172.2v-4c126.9-200.7,1851.6-200.7,1978.4,0v4Z"/>
        </g>
        <g class="cls-3">
          <path class="cls-1" d="M-28.3,107.9c285.8-163.5,1691.3-163.5,1977,0v2C1668.5-55.3,251.9-55.3-28.3,109.8v-1.9Z"/>
          <path class="cls-1" d="M1949.2,111.1C1672.7-55.3,247.8-55.3-28.8,111.1v-4c287.8-163,1690.1-163,1977.9,0,.1,1.3,.1,2.7,.1,4Z"/>
        </g>
        <g class="cls-3">
          <path class="cls-1" d="M-29.4,260.5c-68.3-206.3,2047.6-206.3,1979.2,0v2C2021.7,56.6-101.4,56.6-29.5,262.5c.1-.7,.1-1.3,.1-2Z"/>
          <path class="cls-1" d="M1949.7,263.8C2025.8,57.8-105.4,57.8-29.3,263.8v-4c-68.8-207,2047.8-207,1979,0v4Z"/>
        </g>
        <g class="cls-3">
          <path class="cls-1" d="M-30.2,482.5c-312-57.4,2292.8-57.4,1980.7,0v2c312.8-55.5-2293.5-55.5-1980.7,0,0-.7,0-1.4,0-2Z"/>
          <path class="cls-1" d="M1950.1,485.6c316.5-54.6-2296.2-54.6-1979.8,0v-4c-315-58.5,2294.7-58.5,1979.8,0v4Z"/>
        </g>
        <g class="cls-3">
          <path class="cls-1" d="M-30.1,444.2c-292.8-93.1,2273.4-93.1,1980.6,0v2c294-91.3-2274.6-91.3-1980.6,0,0-.7,0-1.4,0-2Z"/>
          <path class="cls-1" d="M1950.1,447.3c297.9-90.6-2277.6-90.6-1979.7,0v-4c-295.4-94.2,2275.1-94.2,1979.7,0-.1,1.3,0,2.7,0,4Z"/>
        </g>
        <g class="cls-3">
          <path class="cls-1" d="M-30.2,513.1c-320.6-27.5,2301.4-27.5,1980.8,0v2c320.9-25.6-2301.7-25.6-1980.8,0,0-.7,0-1.3,0-2Z"/>
          <path class="cls-1" d="M1950.1,516.1c324.5-24.6-2304.3-24.6-1979.8,0v-4c-323.8-28.6,2303.6-28.6,1979.8,0v4Z"/>
        </g>
        <g class="cls-3">
          <path class="cls-1" d="M-28.7,153.6c163.6-194.1,1814.2-194.1,1977.8,0v2C1790.5-39.5,129.9-39.5-28.7,155.6v-2Z"/>
          <path class="cls-1" d="M1949.4,156.9C1794.7-39.1,125.8-39.1-28.9,156.9v-4c164.8-194,1813.5-194,1978.3,0v4Z"/>
        </g>
        <g class="cls-3">
          <path class="cls-1" d="M-28.5,123.1c243.5-175.6,1733.8-175.6,1977.3,0v2C1710.7-52,209.7-52-28.5,125.1v-2Z"/>
          <path class="cls-1" d="M1949.2,126.4C1714.9-51.8,205.5-51.8-28.8,126.4v-4c245.3-175.2,1732.8-175.2,1978.1,0-.1,1.3-.1,2.6-.1,4Z"/>
        </g>
        <g class="cls-3">
          <path class="cls-1" d="M-29.6,291.1c-120.9-197.1,2100.5-197.1,1979.6,0v2c124.1-196.3-2103.7-196.3-1979.6,0,0-.7,0-1.4,0-2Z"/>
          <path class="cls-1" d="M1949.8,294.4c128.3-196.4-2107.5-196.4-1979.2,0v-4c-121.8-197.9,2101-197.9,1979.2,0,0,1.3,0,2.6,0,4Z"/>
        </g>
        <g class="cls-3">
          <path class="cls-1" d="M-29.8,352.3c-207.9-165.4,2188-165.4,1980.1,0v2c210.3-164.1-2190.4-164.1-1980.1,0-.1-.7,0-1.3,0-2Z"/>
          <path class="cls-1" d="M1949.9,355.5c214.5-163.8-2193.9-163.8-1979.5,0v-4c-209.6-166.4,2189-166.4,1979.4,0,.1,1.4,.1,2.7,.1,4Z"/>
        </g>
        <g class="cls-3">
          <path class="cls-1" d="M-29.1,214.7C-7.2,4.4,1927.6,4.4,1949.6,214.7v2C1931.8,6.3-11.4,6.3-29.2,216.6c.1-.6,.1-1.3,.1-1.9Z"/>
          <path class="cls-1" d="M1949.6,218C1935.9,7.1-15.5,7.1-29.2,218v-4C-7,3.3,1927.4,3.3,1949.6,214v4Z"/>
        </g>
        <g class="cls-3">
          <path class="cls-1" d="M-30.2,474.8c-308.9-64.7,2289.7-64.7,1980.7,0v2c309.8-62.8-2290.5-62.8-1980.7,0,0-.7,0-1.3,0-2Z"/>
          <path class="cls-1" d="M1950.1,477.9c313.5-62-2293.3-62-1979.8,0v-4c-311.8-65.8,2291.6-65.8,1979.7,0,.1,1.3,.1,2.7,.1,4Z"/>
        </g>
        <g class="cls-3">
          <path class="cls-1" d="M-30.2,505.4c-319-35.1,2299.8-35.1,1980.8,0v2c319.5-33.1-2300.2-33.1-1980.8,0,0-.6,0-1.3,0-2Z"/>
          <path class="cls-1" d="M1950.1,508.5c323-32.2-2302.8-32.2-1979.8,0v-4c-322.1-36.1,2301.9-36.1,1979.8,0v4Z"/>
        </g>
        <g class="cls-3">
          <path class="cls-1" d="M-30.1,459.5c-301.6-79.1,2282.3-79.1,1980.7,0v2c302.7-77.2-2283.3-77.2-1980.7,0,0-.7,0-1.4,0-2Z"/>
          <path class="cls-1" d="M1950.1,462.6c306.5-76.5-2286.2-76.5-1979.7,0v-4c-304.4-80.2,2284.1-80.2,1979.7,0v4Z"/>
        </g>
        <g class="cls-3">
          <path class="cls-1" d="M-30.2,528.4c-322.6-12.4,2303.4-12.4,1980.8,0v2c322.7-10.4-2303.5-10.4-1980.8,0,0-.6,0-1.3,0-2Z"/>
          <path class="cls-1" d="M1950.1,531.4c326.2-9.4-2306-9.4-1979.8,0v-4c-325.9-13.4,2305.7-13.4,1979.8,0v4Z"/>
        </g>
        <g class="cls-3">
          <path class="cls-1" d="M-29.3,245.2c-39.8-209,2018.8-209,1979.1,0v2C1993.3,38.5-72.8,38.5-29.3,247.2c0-.7,0-1.3,0-2Z"/>
          <path class="cls-1" d="M1949.7,248.5C1997.4,39.5-77,39.5-29.2,248.5v-4c-40-209.6,2018.9-209.6,1978.9,0v4Z"/>
        </g>
        <g class="cls-3">
          <path class="cls-1" d="M-28.9,184.1c89.7-205.5,1888.5-205.5,1978.3,0v2C1864.2-19.9,56.3-19.9-28.9,186.1c0-.7,0-1.3,0-2Z"/>
          <path class="cls-1" d="M1949.5,187.4C1868.3-19.2,52.1-19.2-29.1,187.4v-4c90.4-205.6,1888.1-205.6,1978.5,0,.1,1.4,.1,2.7,.1,4Z"/>
        </g>
        <g class="cls-3">
          <path class="cls-1" d="M-30,413.5c-270.6-119.7,2251.1-119.7,1980.5,0v2c272.2-118.1-2252.7-118.1-1980.5,0v-2Z"/>
          <path class="cls-1" d="M1950,416.7c276.2-117.5-2255.8-117.5-1979.6,0v-4c-272.9-120.8,2252.5-120.8,1979.6,0v4Z"/>
        </g>
        <g class="cls-3">
          <path class="cls-1" d="M-30.2,520.8c-321.8-20,2302.6-20,1980.8,0v2c322-18-2302.8-18-1980.8,0,0-.7,0-1.4,0-2Z"/>
          <path class="cls-1" d="M1950.1,523.8c325.5-17-2305.3-17-1979.8,0v-4c-325-21,2304.8-21,1979.8,0v4Z"/>
        </g>
        <g class="cls-3">
          <path class="cls-1" d="M-30.2,490.1c-314.7-50,2295.5-50,1980.7,0v2c315.4-48.1-2296.1-48.1-1980.8,0,.1-.7,.1-1.3,.1-2Z"/>
          <path class="cls-1" d="M1950.1,493.2c319.1-47.2-2298.8-47.2-1979.8,0v-4c-317.8-51.1,2297.5-51.1,1979.8,0v4Z"/>
        </g>
        <g class="cls-3">
          <path class="cls-1" d="M-30.2,536.1c-323-4.8,2303.8-4.8,1980.8,0v2c323.1-2.8-2303.9-2.8-1980.8,0,0-.7,0-1.3,0-2Z"/>
          <path class="cls-1" d="M1950.1,539.1c326.5-1.8-2306.3-1.8-1979.8,0v-4c-326.4-5.8,2306.2-5.8,1979.8,0v4Z"/>
        </g>
        <g class="cls-3">
          <path class="cls-1" d="M-29.7,306.4c-145-190.7,2124.7-190.7,1979.7,0v2c148-189.8-2127.7-189.8-1979.7,0,0-.7,0-1.4,0-2Z"/>
          <path class="cls-1" d="M1949.8,309.7c152.1-189.7-2131.4-189.7-1979.3,0v-4c-146.1-191.6,2125.3-191.6,1979.2,0,.1,1.3,.1,2.6,.1,4Z"/>
        </g>
        <g class="cls-3">
          <path class="cls-1" d="M-30.1,428.8c-282.4-106.7,2263-106.7,1980.6,0v2c283.9-105-2264.4-105-1980.6,0,0-.6,0-1.3,0-2Z"/>
          <path class="cls-1" d="M1950,432c287.8-104.3-2267.5-104.3-1979.7,0v-4c-284.9-107.8,2264.7-107.8,1979.7,0v4Z"/>
        </g>
        <g class="cls-3">
          <path class="cls-1" d="M-29.9,367.6c-225.9-155.1,2206.1-155.1,1980.2,0v2c228.1-153.7-2208.3-153.7-1980.2,0,0-.7,0-1.3,0-2Z"/>
          <path class="cls-1" d="M1950,370.8c232.2-153.3-2211.7-153.3-1979.5,0v-4c-227.7-156.1,2207.2-156.1,1979.5,0-.1,1.4-.1,2.7,0,4Z"/>
        </g>
        <g class="cls-3">
          <path class="cls-1" d="M-30,398.2c-257.2-132.2,2237.6-132.2,1980.4,0v2c259-130.6-2239.4-130.6-1980.4,0v-2Z"/>
          <path class="cls-1" d="M1950,401.4c263.1-130.1-2242.7-130.1-1979.6,0v-4c-259.4-133.3,2239-133.3,1979.6,0v4Z"/>
        </g>
        <g class="cls-3">
          <path class="cls-1" d="M-29.5,275.8c-95.4-202.3,2074.8-202.3,1979.4,0v2c98.8-201.7-2078.2-201.7-1979.4,0v-2Z"/>
          <path class="cls-1" d="M1949.8,279.1c103-201.8-2082.1-201.8-1979.1,0v-4c-96.1-203,2075.2-203,1979.1,0-.1,1.3,0,2.7,0,4Z"/>
        </g>
        <g class="cls-3">
          <path class="cls-1" d="M-29.8,337c-188.4-174.8,2168.4-174.8,1980,0v2c191.1-173.6-2171-173.6-1980,0,0-.7,0-1.4,0-2Z"/>
          <path class="cls-1" d="M1949.9,340.2c195.2-173.4-2174.6-173.4-1979.4,0v-4c-189.9-175.7,2169.3-175.7,1979.4,0v4Z"/>
        </g>
        <g class="cls-3">
          <path class="cls-1" d="M-30.2,551.4c-322.7,10.4,2303.5,10.4,1980.8,0v2c322.6,12.4-2303.4,12.4-1980.8,0,0-.7,0-1.3,0-2Z"/>
          <path class="cls-1" d="M1950.1,554.4c325.9,13.4-2305.7,13.4-1979.8,0v-4c-326.2,9.4,2306,9.4,1979.8,0v4Z"/>
        </g>
        <g class="cls-3">
          <path class="cls-1" d="M-30.2,543.8c-323.1,2.8,2303.9,2.8,1980.8,0v2c323,4.8-2303.8,4.8-1980.8,0,0-.7,0-1.4,0-2Z"/>
          <path class="cls-1" d="M1950.1,546.7c326.4,5.8-2306.2,5.8-1979.8,0v-4c-326.5,1.8,2306.3,1.8,1979.8,0v4Z"/>
        </g>
        <g class="cls-3">
          <path class="cls-1" d="M-30.2,605c-309.8,62.8,2290.5,62.8,1980.7,0v2c308.9,64.7-2289.7,64.7-1980.7,0,0-.6,0-1.3,0-2Z"/>
          <path class="cls-1" d="M1950.1,607.9c311.8,65.8-2291.6,65.8-1979.7,0v-4c-313.5,62,2293.3,62,1979.8,0-.1,1.4-.1,2.7-.1,4Z"/>
        </g>
        <g class="cls-3">
          <path class="cls-1" d="M-30.1,620.4c-302.7,77.2,2283.3,77.2,1980.7,0v2c301.6,79.1-2282.3,79.1-1980.7,0,0-.7,0-1.4,0-2Z"/>
          <path class="cls-1" d="M1950.1,623.2c304.4,80.2-2284.1,80.2-1979.7,0v-4c-306.5,76.5,2286.2,76.5,1979.7,0v4Z"/>
        </g>
        <g class="cls-3">
          <path class="cls-1" d="M-30.2,574.4c-319.5,33.1,2300.2,33.1,1980.8,0v2c319,35.1-2299.8,35.1-1980.8,0,0-.7,0-1.3,0-2Z"/>
          <path class="cls-1" d="M1950.1,577.3c322.1,36.1-2301.9,36.1-1979.8,0v-4c-323,32.2,2302.8,32.2,1979.8,0v4Z"/>
        </g>
        <g class="cls-3">
          <path class="cls-1" d="M-29.7,773.5c-148,189.8,2127.7,189.8,1979.7,0v2c145,190.7-2124.7,190.7-1979.7,0,0-.7,0-1.4,0-2Z"/>
          <path class="cls-1" d="M1949.8,776.2c146.1,191.6-2125.3,191.6-1979.2,0v-4c-152.1,189.7,2131.4,189.7,1979.3,0-.1,1.3-.1,2.6-.1,4Z"/>
        </g>
        <g class="cls-3">
          <path class="cls-1" d="M-29.2,865.2c17.8,210.4,1960.9,210.4,1978.7,0v2c-22,210.3-1956.7,210.3-1978.7,0,.1-.7,.1-1.3,0-2Z"/>
          <path class="cls-1" d="M1949.6,867.9c-22.2,210.6-1956.6,210.6-1978.7,0v-4c13.7,210.8,1965.1,210.8,1978.8,0-.1,1.3-.1,2.6-.1,4Z"/>
        </g>
        <g class="cls-3">
          <path class="cls-1" d="M-29.9,712.3c-228.1,153.7,2208.3,153.7,1980.2,0v2c225.9,155.1-2206.1,155.1-1980.2,0,0-.7,0-1.4,0-2Z"/>
          <path class="cls-1" d="M1949.9,715c227.7,156.1-2207.2,156.1-1979.5,0v-4c-232.2,153.3,2211.7,153.3,1979.5,0v4Z"/>
        </g>
        <g class="cls-3">
          <path class="cls-1" d="M-28.7,926.3c158.7,195.1,1819.2,195.1,1977.8,0v2c-163.6,194.1-1814.2,194.1-1977.8,0,0-.7,0-1.4,0-2Z"/>
          <path class="cls-1" d="M1949.3,928.9c-164.8,194-1813.5,194-1978.3,0v-4c154.7,196,1823.6,196,1978.3,0,.1,1.4,.1,2.7,0,4Z"/>
        </g>
        <g class="cls-3">
          <path class="cls-1" d="M-30.2,589.7c-315.4,48.1,2296.1,48.1,1980.8,0v2c314.7,50-2295.5,50-1980.7,0-.1-.7-.1-1.3-.1-2Z"/>
          <path class="cls-1" d="M1950.1,592.6c317.8,51.1-2297.5,51.1-1979.8,0v-4c-319.1,47.2,2298.8,47.2,1979.8,0v4Z"/>
        </g>
        <g class="cls-3">
          <path class="cls-1" d="M-30.2,559.1c-322,18,2302.8,18,1980.8,0v2c321.8,20-2302.6,20-1980.8,0,0-.7,0-1.4,0-2Z"/>
          <path class="cls-1" d="M1950.1,562c325,21-2304.8,21-1979.8,0v-4c-325.5,17,2305.3,17,1979.8,0v4Z"/>
        </g>
        <g class="cls-3">
          <path class="cls-1" d="M-30.1,651c-283.9,105,2264.4,105,1980.6,0v2c282.4,106.7-2263,106.7-1980.6,0,0-.7,0-1.3,0-2Z"/>
          <path class="cls-1" d="M1950,653.8c284.9,107.8-2264.6,107.8-1979.7,0v-4c-287.8,104.3,2267.5,104.3,1979.7,0v4Z"/>
        </g>
        <g class="cls-3">
          <path class="cls-1" d="M-28.9,895.7c85.2,206,1893.1,206,1978.3,0v2c-89.7,205.5-1888.5,205.5-1978.3,0,0-.6,0-1.3,0-2Z"/>
          <path class="cls-1" d="M1949.5,898.4c-90.4,205.6-1888.1,205.6-1978.5,0v-4c81.1,206.7,1897.4,206.7,1978.6,0-.1,1.3-.1,2.7-.1,4Z"/>
        </g>
        <g class="cls-3">
          <path class="cls-1" d="M-29.3,834.6c-43.5,208.7,2022.6,208.7,1979.1,0v2c39.8,209-2018.8,209-1979.1,0,0-.6,0-1.3,0-2Z"/>
          <path class="cls-1" d="M1949.7,837.3c40,209.6-2018.9,209.6-1978.9,0v-4c-47.7,209,2026.7,209,1978.9,0v4Z"/>
        </g>
        <g class="cls-3">
          <path class="cls-1" d="M-28.5,956.7c238.2,177,1739.2,177,1977.3,0v2c-243.5,175.6-1733.8,175.6-1977.3,0v-2Z"/>
          <path class="cls-1" d="M1949.2,959.5c-245.3,175.2-1732.8,175.2-1978.1,0v-4c234.4,178.1,1743.7,178.1,1978.1,0v4Z"/>
        </g>
        <g class="cls-3">
          <path class="cls-1" d="M-30.2,582.1c-317.6,40.6,2298.4,40.6,1980.8,0v2c317.1,42.6-2297.8,42.6-1980.8,0,0-.7,0-1.4,0-2Z"/>
          <path class="cls-1" d="M1950.1,585c320.1,43.6-2299.9,43.6-1979.8,0v-4c-321.2,39.7,2301,39.7,1979.8,0v4Z"/>
        </g>
        <g class="cls-3">
          <path class="cls-1" d="M-30.2,566.7c-320.9,25.6,2301.7,25.6,1980.8,0v2c320.6,27.5-2301.4,27.5-1980.8,0,0-.6,0-1.3,0-2Z"/>
          <path class="cls-1" d="M1950.1,569.7c323.8,28.6-2303.6,28.6-1979.8,0v-4c-324.5,24.6,2304.3,24.6,1979.8,0v4Z"/>
        </g>
        <g class="cls-3">
          <path class="cls-1" d="M-30,681.6c-259,130.6,2239.4,130.6,1980.4,0v2c257.2,132.2-2237.6,132.2-1980.4,0v-2Z"/>
          <path class="cls-1" d="M1950,684.4c259.4,133.3-2238.9,133.3-1979.6,0v-4c-263,130.1,2242.6,130.1,1979.6,0v4Z"/>
        </g>
        <g class="cls-3">
          <path class="cls-1" d="M-29.8,742.9c-191,173.6,2171,173.6,1980,0v2c188.4,174.8-2168.4,174.8-1980,0,0-.7,0-1.4,0-2Z"/>
          <path class="cls-1" d="M1949.9,745.6c189.9,175.7-2169.3,175.7-1979.4,0v-4c-195.2,173.4,2174.6,173.4,1979.4,0v4Z"/>
        </g>
        <g class="cls-3">
          <path class="cls-1" d="M-30.2,612.7c-306.4,70.1,2287.1,70.1,1980.7,0v2c305.5,71.9-2286.2,71.9-1980.7,0,.1-.7,.1-1.3,0-2Z"/>
          <path class="cls-1" d="M1950.1,615.6c308.3,73-2288,73-1979.7,0v-4c-310.2,69.3,2289.9,69.3,1979.7,0v4Z"/>
        </g>
        <g class="cls-3">
          <path class="cls-1" d="M-29.1,880.5c50.7,209,1927.8,209,1978.5,0v2c-55.1,208.7-1923.4,208.7-1978.5,0,.1-.7,.1-1.4,0-2Z"/>
          <path class="cls-1" d="M1949.5,883.1c-55.5,208.9-1923.1,208.9-1978.6,0v-4c46.7,209.5,1932,209.5,1978.7,0-.1,1.4-.1,2.7-.1,4Z"/>
        </g>
        <g class="cls-3">
          <path class="cls-1" d="M-28.6,941.5c197.7,187,1779.9,187,1977.6,0v2c-202.8,185.8-1774.7,185.8-1977.6,0,0-.7,0-1.3,0-2Z"/>
          <path class="cls-1" d="M1949.3,944.2c-204.3,185.6-1773.9,185.6-1978.2,0v-4c193.8,188,1784.4,188,1978.2,0v4Z"/>
        </g>
        <g class="cls-3">
          <path class="cls-1" d="M-29.2,849.9c-13.6,210.3,1992.5,210.3,1978.9,0v2c9.7,210.4-1988.5,210.4-1978.9,0,0-.7,0-1.3,0-2Z"/>
          <path class="cls-1" d="M1949.6,852.6c9.7,210.8-1988.5,210.8-1978.8,0v-4c-17.8,210.6,1996.6,210.6,1978.9,0-.1,1.3-.1,2.6-.1,4Z"/>
        </g>
        <g class="cls-3">
          <path class="cls-1" d="M-28.2,987.2c323.8,151.3,1653,151.3,1976.8,0v2c-329.6,149.4-1647.2,149.4-1976.8,0,0-.7,0-1.3,0-2Z"/>
          <path class="cls-1" d="M1949.1,990c-331.9,148.7-1645.9,148.7-1977.8,0v-4c320.2,152.6,1657.7,152.6,1977.8,0v4Z"/>
        </g>
        <g class="cls-3">
          <path class="cls-1" d="M-30.1,635.7c-294,91.3,2274.6,91.3,1980.6,0v2c292.8,93.1-2273.4,93.1-1980.6,0,0-.7,0-1.4,0-2Z"/>
          <path class="cls-1" d="M1950,638.5c295.4,94.2-2275.1,94.2-1979.7,0v-4c-297.9,90.6,2277.6,90.6,1979.7,0,.1,1.4,0,2.7,0,4Z"/>
        </g>
        <g class="cls-3">
          <path class="cls-1" d="M-30.2,597.4c-312.8,55.5,2293.5,55.5,1980.7,0v2c312,57.4-2292.8,57.4-1980.7,0,0-.7,0-1.4,0-2Z"/>
          <path class="cls-1" d="M1950.1,600.3c315,58.5-2294.7,58.5-1979.8,0v-4c-316.5,54.6,2296.2,54.6,1979.8,0v4Z"/>
        </g>
        <g class="cls-3">
          <path class="cls-1" d="M-29.5,804.1c-98.8,201.7,2078.2,201.7,1979.4,0v2c95.4,202.3-2074.8,202.3-1979.4,0v-2Z"/>
          <path class="cls-1" d="M1949.7,806.7c96.1,203-2075.2,203-1979.1,0v-4c-103,201.8,2082.1,201.8,1979.1,0,.1,1.4,0,2.7,0,4Z"/>
        </g>
        <g class="cls-3">
          <path class="cls-1" d="M-28.3,972c280.2,165.2,1696.8,165.2,1977.1,0v2c-285.8,163.5-1691.3,163.5-1977,0-.1-.7-.1-1.4-.1-2Z"/>
          <path class="cls-1" d="M1949.2,974.7c-287.8,163-1690.1,163-1977.9,0v-4c276.5,166.4,1701.4,166.4,1978,0-.1,1.4-.1,2.7-.1,4Z"/>
        </g>
        <g class="cls-3">
          <path class="cls-1" d="M-28.8,911c121.2,201.4,1856.9,201.4,1978.1,0v2c-125.9,200.7-1852.1,200.7-1978,0-.1-.7-.1-1.3-.1-2Z"/>
          <path class="cls-1" d="M1949.4,913.7c-126.9,200.7-1851.6,200.7-1978.4,0v-4c117.2,202.2,1861.3,202.2,1978.4,0v4Z"/>
        </g>
        <g class="cls-3">
          <path class="cls-1" d="M-28.1,1002.5c368.9,135.4,1607.6,135.4,1976.5,0v2c-374.9,133.2-1601.6,133.2-1976.5,0,0-.7,0-1.4,0-2Z"/>
          <path class="cls-1" d="M1949,1005.2c-377.4,132.3-1600.2,132.3-1977.7,0v-4c365.4,136.8,1612.3,136.8,1977.7,0v4Z"/>
        </g>
        <g class="cls-3">
          <path class="cls-1" d="M-30,696.9c-244.3,142.5,2224.6,142.5,1980.3,0v2c242.3,144-2222.6,144-1980.3,0v-2Z"/>
          <path class="cls-1" d="M1950,699.7c244.3,145.1-2223.8,145.1-1979.5,0v-4c-248.4,142,2227.9,142,1979.6,0-.1,1.3-.1,2.7-.1,4Z"/>
        </g>
        <g class="cls-3">
          <path class="cls-1" d="M-29.4,819.4c-71.9,205.9,2051.2,205.9,1979.3,0v2c68.3,206.3-2047.6,206.3-1979.2,0-.1-.7-.1-1.4-.1-2Z"/>
          <path class="cls-1" d="M1949.7,822c68.8,207-2047.8,207-1979,0v-4c-76.1,206,2055.1,206,1979,0v4Z"/>
        </g>
        <g class="cls-3">
          <path class="cls-1" d="M-29.7,758.2c-170.3,182.2,2150.1,182.2,1979.9,0v2c167.5,183.2-2147.3,183.2-1979.8,0-.1-.7-.1-1.4-.1-2Z"/>
          <path class="cls-1" d="M1949.9,760.9c168.7,184.1-2148.1,184.1-1979.4,0v-4c-174.4,182,2153.8,182,1979.3,0,.1,1.3,.1,2.6,.1,4Z"/>
        </g>
        <g class="cls-3">
          <path class="cls-1" d="M-29.6,788.8c-124.1,196.3,2103.7,196.3,1979.6,0v2c120.9,197.1-2100.5,197.1-1979.6,0,0-.7,0-1.4,0-2Z"/>
          <path class="cls-1" d="M1949.8,791.5c121.8,197.9-2101,197.9-1979.2,0v-4c-128.3,196.3,2107.5,196.3,1979.2,0v4Z"/>
        </g>
        <g class="cls-3">
          <path class="cls-1" d="M-30,666.3c-272.2,118.1,2252.7,118.1,1980.5,0v2c270.5,119.7-2251.1,119.7-1980.5,0v-2Z"/>
          <path class="cls-1" d="M1950,669.1c272.9,120.9-2252.5,120.9-1979.6,0v-4c-276.2,117.5,2255.8,117.5,1979.6,0v4Z"/>
        </g>
        <g class="cls-3">
          <path class="cls-1" d="M-29.9,727.6c-210.3,164.1,2190.4,164.1,1980.1,0v2c207.9,165.4-2188,165.4-1980.1,0,.1-.7,0-1.4,0-2Z"/>
          <path class="cls-1" d="M1949.9,730.3c209.6,166.4-2189,166.4-1979.4,0v-4c-214.5,163.8,2193.9,163.8,1979.5,0-.1,1.3-.1,2.7-.1,4Z"/>
        </g>
        <g class="cls-3">
          <path class="cls-1" d="M-30.1,643.3c-289.1,98.2,2269.7,98.2,1980.6,0v2c287.8,100-2268.4,100-1980.6,0,0-.6,0-1.3,0-2Z"/>
          <path class="cls-1" d="M1950,646.2c290.4,101.1-2270,101.1-1979.7,0v-4c-293.1,97.5,2272.8,97.5,1979.7,0v4Z"/>
        </g>
        <g class="cls-3">
          <path class="cls-1" d="M-30.1,628c-298.5,84.3,2279.2,84.3,1980.6,0v2c297.4,86.1-2278,86.1-1980.6,0,0-.7,0-1.3,0-2Z"/>
          <path class="cls-1" d="M1950.1,630.9c300.1,87.3-2279.8,87.3-1979.7,0v-4c-302.4,83.6,2282.1,83.6,1979.7,0v4Z"/>
        </g>
        <g class="cls-3">
          <path class="cls-1" d="M-29.8,750.5c-180.8,178,2160.8,178,1979.9,0v2c178.1,179.1-2158.1,179.1-1979.9,0,0-.7,0-1.3,0-2Z"/>
          <path class="cls-1" d="M1949.9,753.2c179.5,180.1-2158.9,180.1-1979.3,0v-4c-185,177.8,2164.4,177.8,1979.4,0-.1,1.4-.1,2.7-.1,4Z"/>
        </g>
        <g class="cls-3">
          <path class="cls-1" d="M-29.6,781.1c-136.2,193.2,2115.9,193.2,1979.6,0v2c133.1,194-2112.8,194-1979.6,0,0-.7,0-1.3,0-2Z"/>
          <path class="cls-1" d="M1949.8,783.8c134.1,194.9-2113.3,194.9-1979.2,0v-4c-140.4,193.2,2119.7,193.2,1979.2,0v4Z"/>
        </g>
        <g class="cls-3">
          <path class="cls-1" d="M-30,689.3c-251.8,136.7,2232.2,136.7,1980.4,0v2c249.9,138.2-2230.3,138.2-1980.4,0v-2Z"/>
          <path class="cls-1" d="M1950,692.1c252,139.3-2231.6,139.3-1979.6,0v-4c-255.9,136.1,2235.5,136.1,1979.6,0v4Z"/>
        </g>
        <g class="cls-3">
          <path class="cls-1" d="M-28.7,933.9c178,191.3,1799.7,191.3,1977.7,0v2c-183,190.1-1794.6,190.1-1977.6,0,0-.7-.1-1.4-.1-2Z"/>
          <path class="cls-1" d="M1949.3,936.6c-184.4,190-1793.9,190-1978.2,0v-4c174.1,192.2,1804.2,192.2,1978.3,0-.1,1.3-.1,2.6-.1,4Z"/>
        </g>
        <g class="cls-3">
          <path class="cls-1" d="M-27.9,1017.7c415.5,117.4,1560.7,117.4,1976.3,0v2c-421.6,114.9-1554.6,114.9-1976.2,0-.1-.7-.1-1.4-.1-2Z"/>
          <path class="cls-1" d="M1949,1020.5c-424.5,113.8-1553,113.8-1977.5,0v-4c412,118.9,1565.5,118.9,1977.5,0v4Z"/>
        </g>
        <g class="cls-3">
          <path class="cls-1" d="M-29.1,872.8c34.1,209.9,1944.5,209.9,1978.6,0v2c-38.3,209.7-1940.2,209.7-1978.6,0,0-.6,0-1.3,0-2Z"/>
          <path class="cls-1" d="M1949.5,875.5c-38.7,210-1940,210-1978.7,0v-4c30,210.4,1948.7,210.4,1978.7,0v4Z"/>
        </g>
        <g class="cls-3">
          <path class="cls-1" d="M-27.6,1048.1c513.3,74.6,1462.3,74.6,1975.6,0v2c-519.8,71.5-1455.8,71.5-1975.6,0,0-.7,0-1.3,0-2Z"/>
          <path class="cls-1" d="M1948.8,1051c-523.3,70-1453.9,70-1977.2,0v-4c510,76.3,1467.2,76.3,1977.3,0-.1,1.3-.1,2.6-.1,4Z"/>
        </g>
        <g class="cls-3">
          <path class="cls-1" d="M-29.9,719.9c-219.4,159,2199.5,159,1980.2,0v2c217.1,160.3-2197.2,160.3-1980.1,0-.1-.7-.1-1.3-.1-2Z"/>
          <path class="cls-1" d="M1949.9,722.7c218.9,161.3-2198.3,161.3-1979.4,0v-4c-223.5,158.6,2203,158.6,1979.5,0-.1,1.3-.1,2.6-.1,4Z"/>
        </g>
        <g class="cls-3">
          <path class="cls-1" d="M-30.1,658.7c-278.2,111.6,2258.7,111.6,1980.5,0v2c276.7,113.3-2257.2,113.3-1980.5,0,0-.7,0-1.4,0-2Z"/>
          <path class="cls-1" d="M1950,661.5c279.1,114.4-2258.8,114.4-1979.6,0v-4c-282.2,110.9,2261.9,110.9,1979.7,0-.1,1.3-.1,2.6-.1,4Z"/>
        </g>
        <g class="cls-3">
          <path class="cls-1" d="M-29.5,811.7c-85.5,203.9,2064.9,203.9,1979.3,0v2c82,204.5-2061.4,204.5-1979.3,0v-2Z"/>
          <path class="cls-1" d="M1949.7,814.4c82.6,205.2-2061.7,205.2-1979.1,0v-4c-89.7,204.1,2068.8,204.1,1979.1,0v4Z"/>
        </g>
        <g class="cls-3">
          <path class="cls-1" d="M-27.8,1032.9c463.6,97.1,1512.3,97.1,1976,0v2c-470,94.3-1505.9,94.3-1975.9,0-.1-.7-.1-1.4-.1-2Z"/>
          <path class="cls-1" d="M1948.9,1035.7c-473.2,93.1-1504.2,93.1-1977.4,0v-4c460.3,98.7,1517.1,98.7,1977.4,0v4Z"/>
        </g>
        <g class="cls-3">
          <path class="cls-1" d="M-28.1,994.8c346.2,143.6,1630.5,143.6,1976.7,0v2c-352,141.5-1624.6,141.5-1976.6,0-.1-.6-.1-1.3-.1-2Z"/>
          <path class="cls-1" d="M1949.1,997.6c-354.5,140.8-1623.3,140.8-1977.7,0v-4c342.6,145,1635.2,145,1977.8,0-.1,1.3-.1,2.7-.1,4Z"/>
        </g>
        <g class="cls-3">
          <path class="cls-1" d="M-27.5,1063.3c564.5,49.7,1410.9,49.7,1975.3,0v2c-571.2,46.3-1404.1,46.3-1975.3,0v-2Z"/>
          <path class="cls-1" d="M1948.7,1066.2c-575,44.6-1402.1,44.6-1977.1,0v-4c561.3,51.5,1415.8,51.5,1977.1,0v4Z"/>
        </g>
        <g class="cls-3">
          <path class="cls-1" d="M-29.9,704.6c-236.4,148.2,2216.6,148.2,1980.3,0v2c234.3,149.6-2214.5,149.6-1980.3,0,0-.7,0-1.3,0-2Z"/>
          <path class="cls-1" d="M1950,707.4c236.2,150.7-2215.7,150.7-1979.5,0v-4c-240.5,147.8,2220,147.8,1979.5,0v4Z"/>
        </g>
        <g class="cls-3">
          <path class="cls-1" d="M-30,674c-265.8,124.4,2246.2,124.4,1980.4,0v2c264.1,126-2244.5,126-1980.4,0v-2Z"/>
          <path class="cls-1" d="M1950,676.8c266.3,127.1-2245.9,127.1-1979.6,0v-4c-269.8,123.9,2249.4,123.9,1979.6,0v4Z"/>
        </g>
        <g class="cls-3">
          <path class="cls-1" d="M-29.3,842.3c-28.8,209.7,2007.8,209.7,1979,0v2c24.9,209.9-2003.9,209.9-1979,0,0-.7,0-1.4,0-2Z"/>
          <path class="cls-1" d="M1949.6,844.9c25,210.4-2003.9,210.4-1978.9,0v-4c-32.9,210,2011.8,210,1978.9,0v4Z"/>
        </g>
        <g class="cls-3">
          <path class="cls-1" d="M-28.9,903.4c103,203.9,1875.2,203.9,1978.2,0v2c-107.6,203.3-1870.5,203.3-1978.1,0-.1-.7-.1-1.4-.1-2Z"/>
          <path class="cls-1" d="M1949.4,906c-108.4,203.4-1870,203.4-1978.4,0v-4c99,204.6,1879.5,204.6,1978.5,0-.1,1.4-.1,2.7-.1,4Z"/>
        </g>
        <g class="cls-3">
          <path class="cls-1" d="M-29.7,765.8c-159.3,186.2,2139.1,186.2,1979.8,0v2c156.4,187.1-2136.2,187.1-1979.8,0,0-.7,0-1.3,0-2Z"/>
          <path class="cls-1" d="M1949.8,768.5c157.6,188-2136.9,188-1979.3,0v-4c-163.5,186,2142.8,186,1979.3,0v4Z"/>
        </g>
        <g class="cls-3">
          <path class="cls-1" d="M-27.9,1025.3c439.4,107.5,1536.7,107.5,1976.1,0v2c-445.6,104.9-1530.4,104.9-1976.1,0,.1-.7,.1-1.4,0-2Z"/>
          <path class="cls-1" d="M1948.9,1028.1c-448.6,103.7-1528.8,103.7-1977.4,0v-4c436,109.1,1541.5,109.1,1977.5,0-.1,1.3-.1,2.7-.1,4Z"/>
        </g>
        <g class="cls-3">
          <path class="cls-1" d="M-27.5,1055.7c538.7,62.4,1436.8,62.4,1975.5,0v2c-545.3,59.2-1430.1,59.2-1975.5,0v-2Z"/>
          <path class="cls-1" d="M1948.8,1058.6c-549,57.6-1428.2,57.6-1977.1,0v-4c535.5,64.2,1441.7,64.2,1977.2,0-.1,1.3-.1,2.7-.1,4Z"/>
        </g>
        <g class="cls-3">
          <path class="cls-1" d="M-28,1010.1c392,126.6,1584.4,126.6,1976.4,0v2c-398.1,124.3-1578.3,124.3-1976.4,0v-2Z"/>
          <path class="cls-1" d="M1949,1012.9c-400.8,123.3-1576.8,123.3-1977.6,0v-4c388.5,128.1,1589.1,128.1,1977.6,0v4Z"/>
        </g>
        <g class="cls-3">
          <path class="cls-1" d="M-27.3,1078.5c617.1,22.4,1357.9,22.4,1975,0v2c-624.1,18.7-1350.9,18.7-1975,0,0-.7,0-1.4,0-2Z"/>
          <path class="cls-1" d="M1948.6,1081.4c-628.2,16.8-1348.7,16.8-1976.9,0v-4c614.1,24.4,1362.9,24.4,1976.9,0,.1,1.4,.1,2.7,0,4Z"/>
        </g>
        <g class="cls-3">
          <path class="cls-1" d="M-29.6,796.4c-111.6,199.2,2091.1,199.2,1979.5,0v2c108.3,199.8-2087.8,199.8-1979.5,0,.1-.7,.1-1.3,0-2Z"/>
          <path class="cls-1" d="M1949.8,799.1c109.1,200.6-2088.3,200.6-1979.1,0v-4c-115.8,199.2,2095,199.2,1979.2,0-.1,1.3-.1,2.7-.1,4Z"/>
        </g>
        <g class="cls-3">
          <path class="cls-1" d="M-29.8,735.2c-200.9,169,2180.9,169,1980,0v2c198.4,170.2-2178.4,170.2-1980,0,0-.7,0-1.3,0-2Z"/>
          <path class="cls-1" d="M1949.9,738c199.9,171.2-2179.3,171.2-1979.4,0v-4c-205,168.7,2184.5,168.7,1979.4,0v4Z"/>
        </g>
        <g class="cls-3">
          <path class="cls-1" d="M-28.4,964.4c259,171.4,1718.2,171.4,1977.2,0v2c-264.5,169.8-1712.7,169.8-1977.2,0,0-.7,0-1.4,0-2Z"/>
          <path class="cls-1" d="M1949.2,967.1c-266.3,169.3-1711.6,169.3-1978,0v-4c255.3,172.5,1722.8,172.5,1978,0v4Z"/>
        </g>
        <g class="cls-3">
          <path class="cls-1" d="M-27.4,1070.9c590.6,36.4,1384.5,36.4,1975.2,0v2c-597.5,32.8-1377.7,32.8-1975.1,0-.1-.7-.1-1.3-.1-2Z"/>
          <path class="cls-1" d="M1948.7,1073.8c-601.4,31-1375.6,31-1977,0v-4c587.5,38.2,1389.5,38.2,1977,0v4Z"/>
        </g>
        <g class="cls-3">
          <path class="cls-1" d="M-27.7,1040.5c488.3,86.1,1487.5,86.1,1975.8,0v2c-494.7,83.2-1481,83.2-1975.8,0,0-.7,0-1.4,0-2Z"/>
          <path class="cls-1" d="M1948.8,1043.3c-498,81.8-1479.2,81.8-1977.3,0v-4c485,87.8,1492.4,87.8,1977.3,0,.1,1.4,0,2.7,0,4Z"/>
        </g>
        <g class="cls-3">
          <path class="cls-1" d="M-29.2,857.6c1.9,210.5,1976.9,210.5,1978.8,0v2c-6,210.5-1972.8,210.5-1978.8,0,0-.7,0-1.4,0-2Z"/>
          <path class="cls-1" d="M1949.6,860.2c-6,210.9-1972.7,210.9-1978.8,0v-4c-2.2,210.9,1981.1,210.9,1978.8,0v4Z"/>
        </g>
        <g class="cls-3">
          <path class="cls-1" d="M-28.3,979.6c301.8,158.5,1675.1,158.5,1977,0v2c-307.5,156.7-1669.4,156.7-1976.9,0-.1-.7-.1-1.3-.1-2Z"/>
          <path class="cls-1" d="M1949.1,982.3c-309.6,156.1-1668.2,156.1-1977.9,0v-4c298.2,159.7,1679.7,159.7,1977.9,0v4Z"/>
        </g>
        <g class="cls-3">
          <path class="cls-1" d="M-28.8,918.6c139.7,198.4,1838.2,198.4,1977.9,0v2c-144.6,197.6-1833.3,197.6-1977.9,0,0-.7,0-1.3,0-2Z"/>
          <path class="cls-1" d="M1949.4,921.3c-145.6,197.6-1832.7,197.6-1978.4,0v-4c135.8,199.3,1842.6,199.3,1978.4,0v4Z"/>
        </g>
        <g class="cls-3">
          <path class="cls-1" d="M-28.5,949.1c217.7,182.2,1759.7,182.2,1977.5,0v2c-223,180.9-1754.5,180.9-1977.4,0-.1-.7-.1-1.3-.1-2Z"/>
          <path class="cls-1" d="M1949.3,951.8c-224.6,180.6-1753.5,180.6-1978.1,0v-4c213.9,183.3,1764.3,183.3,1978.2,0-.1,1.4-.1,2.7-.1,4Z"/>
        </g>
        <g class="cls-3">
          <path class="cls-1" d="M-29.4,827c-57.9,207.5,2037.1,207.5,1979.2,0v2c54.2,207.8-2033.4,207.8-1979.1,0-.1-.7-.1-1.3-.1-2Z"/>
          <path class="cls-1" d="M1949.7,829.7c54.6,208.4-2033.6,208.4-1979,0v-4c-62.1,207.7,2041.1,207.7,1979,0v4Z"/>
        </g>
        <g class="cls-3">
          <path class="cls-1" d="M-29,888.1c67.8,207.7,1910.6,207.7,1978.4,0v2c-72.2,207.3-1906.1,207.3-1978.4,0v-2Z"/>
          <path class="cls-1" d="M1949.5,890.8c-72.8,207.5-1905.8,207.5-1978.6,0v-4c63.7,208.3,1914.9,208.3,1978.6,0v4Z"/>
        </g>
      </g>
    </g>
  </g>
</svg>